<svg width="187" height="49" viewBox="0 0 187 49" fill="none" xmlns="http://www.w3.org/2000/svg">
<path d="M186.35 29.4066C186.344 29.1363 186.338 28.8661 186.332 28.5958C186.338 28.6311 186.344 28.6663 186.344 28.6957V29.4066H186.35Z" fill="white"/>
<path d="M186.236 24.6401C186.136 28.6617 186.007 32.6743 185.854 36.6869C185.579 43.5868 182.098 48.9866 177.824 49.0002H9.93864C5.84129 49.0002 2.2253 46.6008 1.02779 43.0717C0.845816 42.5295 0.681453 41.9556 0.54644 41.3591C0.176622 39.755 -0.0112218 37.9656 0.000518401 36.0407C0.00638852 35.1324 0.0122586 34.2287 0.0239989 33.3205C0.00638852 32.977 0.000518401 32.6246 0.000518401 32.2676C0.0181288 30.171 0.0474794 28.0743 0.0885703 25.9776L0.487739 21.0252L1.45044 9.19987C1.51501 8.39103 1.99049 7.64545 2.7947 7.10773C3.58716 6.57453 4.60269 6.30793 5.66519 6.37119L7.91344 6.50223C12.6565 6.77335 16.7597 7.0038 20.2114 7.19359L22.5477 7.32011C24.3615 7.41952 25.9582 7.50989 27.3377 7.59123C28.318 7.64545 29.2748 7.76294 30.1847 7.94368C30.8011 7.01284 32.0162 6.38023 33.4191 6.31245L35.4267 6.20852C38.532 6.05037 42.33 6.09103 45.8462 6.30793L48.3527 6.46608C49.4739 6.53386 50.5012 6.97217 51.1763 7.65901C51.8572 8.3594 52.1155 9.24054 51.8865 10.081L51.3935 11.9743C51.3935 11.9743 51.3817 12.024 51.3758 12.0466C53.4656 10.3431 56.295 9.31735 59.5705 9.13209C63.2218 8.93779 66.9434 8.93779 70.8881 8.93779C74.8329 8.93779 78.1495 9.93641 80.4799 11.8388C82.3995 10.9621 84.6242 10.4877 87.0955 10.4199L103.233 9.99063C104.283 9.96352 105.357 10.2843 106.103 10.8401C106.86 11.405 107.301 12.1957 107.301 13.0181V13.5378C108.193 13.3977 109.12 13.3254 110.071 13.3254H118.442C120.684 10.2075 124.635 8.27806 129.355 8.01146C133.522 7.78553 137.813 7.78553 142.357 7.78553C145.415 7.78553 148.098 8.33229 150.329 9.40773L153.17 9.71048C154.772 9.88219 156.24 10.2211 157.531 10.7181C159.057 10.2753 160.736 10.09 162.515 10.1714C165.338 10.3205 171.191 10.7678 174.901 11.0841C176.908 11.2559 178.887 11.7213 180.601 12.5527C182.192 13.3209 183.512 14.3963 184.44 15.657C185.432 17.0171 185.948 18.558 186.101 20.1079C186.148 20.623 186.13 21.1427 186.13 21.6668C186.13 21.7663 186.13 21.8702 186.136 21.9741C186.154 22.4892 186.166 23.0089 186.177 23.5285C186.183 23.7364 186.189 23.9442 186.195 24.1521V23.6053C186.23 23.9442 186.242 24.2877 186.236 24.6401Z" fill="white"/>
<path d="M186.285 25.1875C186.285 25.3104 186.285 25.439 186.291 25.5675C186.309 26.2045 186.32 26.8471 186.332 27.4897L186.35 28.2608V27.5847" fill="white"/>
<path d="M32.3011 22.3623C32.636 17.8973 31.1085 15.9468 27.0312 15.6413C25.257 15.512 23.1067 15.3534 20.5922 15.1771C17.2141 14.9304 13.178 14.6425 8.50148 14.2959L6.84473 40.8391C12.3026 41.5265 16.3857 41.8614 23.7706 42.4136C26.3145 42.6016 28.3002 41.9613 29.6867 40.5043C31.1672 38.9415 31.6079 36.8383 31.7195 35.3519C31.9016 32.9196 31.461 31.4098 30.2801 30.4639C29.8747 30.1408 29.6397 29.659 29.628 29.142C29.6162 28.6426 29.8336 28.1609 30.2155 27.8319C31.4022 26.8038 32.1072 24.9649 32.3011 22.3623ZM10.3932 25.0119C10.499 24.1365 11.2627 23.5079 12.1205 23.5079C15.5339 23.5725 19.664 23.7605 22.9011 24.0014C24.881 24.1483 25.6095 25.9343 25.5449 26.8155C25.4509 28.0669 24.4639 29.2654 22.4722 29.2654C22.343 29.2654 22.2137 29.2595 22.0786 29.2478C18.2187 28.9599 14.8524 28.6661 11.7797 28.3489C10.8515 28.249 10.1817 27.4383 10.2581 26.51C10.2992 25.9166 10.3462 25.4349 10.3932 25.0119ZM27.6951 34.3766C27.5835 35.8806 26.7492 36.7384 25.398 36.7384H25.2981C24.4169 36.7384 16.1977 36.6561 12.3907 36.4035C11.5976 36.3448 10.9514 35.7631 10.8221 34.9759C10.7105 34.2944 10.6047 33.5659 10.5225 32.808C10.4637 32.3086 10.6341 31.8093 10.9807 31.4391C11.3274 31.0749 11.815 30.8751 12.3202 30.9045C16.8264 31.1454 21.1445 31.4685 25.7094 31.8093H25.7857C26.4379 31.8621 26.9784 32.1735 27.3191 32.6846C27.6187 33.1311 27.748 33.7128 27.6951 34.3766Z" fill="#00CFFF"/>
<path d="M52.717 34.3651C48.5516 34.6118 44.1806 34.3827 41.9423 34.2241C41.437 34.1888 40.9788 33.9303 40.6791 33.5191C40.3854 33.1137 40.2855 32.5967 40.4089 32.1032C41.8541 26.3281 43.2818 20.0359 44.5331 13.8966C41.9246 13.7262 39.228 13.6909 36.9191 13.8026C36.5431 22.7619 35.9498 30.7931 35.3799 38.2484C41.0023 38.6891 46.9654 38.9887 52.6348 39.1179C52.67 38.8536 52.6935 38.6362 52.7111 38.4247C52.8463 36.7327 52.811 35.5753 52.7111 34.3651H52.717Z" fill="#A74BBE"/>
<path d="M71.1586 17.4102C67.334 17.4102 63.7267 17.4102 60.3486 17.6452C55.2608 18.0212 54.8613 23.3263 54.8613 24.9478C54.8613 28.6608 55.302 32.9143 55.537 34.6415C56.1362 38.9832 58.5273 41.3743 62.2638 41.3743C66.0003 41.3743 68.8967 41.3155 72.0575 41.0042C75.5707 40.7339 77.0277 38.6953 77.1217 33.96C77.1511 32.174 77.1863 30.529 77.2157 29.0838C77.2627 27.0922 77.2921 25.5118 77.2921 24.4014C77.2921 19.7602 75.23 17.4102 71.1586 17.4102ZM72.6215 37.0973C69.261 37.5203 64.5845 37.955 60.989 38.1783C60.9537 38.1783 60.9126 38.1842 60.8773 38.1842C60.4543 38.1842 60.049 38.0255 59.7317 37.7377C59.3851 37.4204 59.1912 36.9915 59.1736 36.5215C59.1207 34.7649 59.062 32.7204 59.062 30.67C59.062 29.1425 59.0972 27.8383 59.1618 26.5634C59.203 25.688 59.8962 24.9889 60.7716 24.9419C64.2437 24.7422 67.8451 24.7128 71.4171 24.9419C72.2043 24.9948 72.8565 25.5705 72.9916 26.3519C73.538 29.3717 73.8552 32.4149 74.1078 35.2467C74.1901 36.169 73.538 36.9857 72.6215 37.0973Z" fill="#FF2D85"/>
<path d="M95.1996 31.7745C93.8248 31.7745 92.3091 31.8274 90.8462 31.8862C89.5948 31.9332 88.4139 31.9802 87.4974 31.9802C86.8806 31.9802 85.4588 31.7452 85.4588 29.5949C85.4588 27.897 86.4752 26.8395 88.1084 26.8395C89.6536 26.8395 96.1924 27.4447 100.293 28.0087C100.411 25.5823 100.534 22.6095 100.546 18.873L87.6267 19.3372C83.4319 19.4899 81.1172 22.4157 81.1172 27.5857C81.1172 31.704 83.1852 33.6017 87.8264 33.725C88.9074 33.7544 90.0942 33.7779 91.2398 33.8014C92.6733 33.8308 94.0539 33.8602 95.0938 33.8954C97.5202 33.96 97.7787 35.652 97.7787 36.3747C97.7787 38.9244 96.2336 39.2005 95.5697 39.2005C93.9364 39.2005 86.1932 38.6365 82.1571 38.2253C81.9103 39.8409 81.8104 41.6093 81.7399 43.1427C83.2322 43.1603 84.5658 43.1603 85.7584 43.1603C92.1739 43.1603 94.2948 42.9605 96.6272 42.4964C100.464 41.7797 100.992 39.1477 100.992 36.4099C100.992 34.4183 100.393 31.7745 95.1996 31.7745Z" fill="#F7B52C"/>
<path d="M116.249 33.3544C115.309 33.3544 114.028 33.3603 112.771 33.3662C111.561 33.3779 110.374 33.3838 109.534 33.3838C108.453 33.3838 107.73 32.5789 107.73 31.3804C107.73 29.753 108.6 28.8248 110.121 28.8248C111.643 28.8248 118.405 29.9175 120.561 30.27L120.614 29.518C120.767 27.5382 120.919 25.4878 121.013 23.1025L110.374 23.1143C105.662 23.1143 104.957 27.3502 104.957 29.8705C104.957 32.9667 106.502 34.3884 110.121 34.6175L110.474 34.6352C112.318 34.7409 114.163 34.8467 115.638 34.9524C117.336 35.0875 117.941 36.2038 117.941 37.2025C117.941 38.9885 116.877 39.623 115.885 39.623C114.469 39.623 108.711 38.8417 105.821 38.4187C105.633 39.5525 105.503 40.7275 105.374 42.1375C109.04 42.3432 111.19 42.4489 112.724 42.4489C119.427 42.4489 120.655 40.7393 120.655 37.367C120.655 34.6704 119.216 33.3544 116.249 33.3544Z" fill="#DDE91B"/>
<path d="M149.084 19.5312C149.096 19.5959 149.102 19.6546 149.102 19.6899C149.213 21.6933 149.307 23.6966 149.395 25.7059C149.519 28.5317 149.624 31.5104 149.718 34.9002C149.754 32.9556 149.789 31.1637 149.824 29.5716C149.871 27.251 149.912 25.418 149.912 24.1314C149.912 22.2866 149.63 20.7532 149.084 19.5312Z" fill="white"/>
<path d="M60.0487 2.65212C60.0605 3.0105 59.7491 3.33362 59.3966 3.34537C59.0323 3.35125 58.721 3.04575 58.7151 2.6815C58.7092 2.31138 59.003 2.00587 59.3672 2C59.7373 2 60.0428 2.28787 60.0487 2.65212Z" fill="white" stroke="white" stroke-width="4" stroke-miterlimit="10"/>
<path d="M73.0031 15.8944C72.4038 16.9754 70.9351 17.134 69.6955 17.1516C67.0576 17.1927 64.3845 17.3572 61.7466 17.2867C59.0676 17.2221 60.1192 15.3069 61.682 14.0614C62.5162 13.3975 63.3916 12.7747 64.3198 12.2695C64.3668 12.3987 64.4256 12.528 64.4843 12.6514C64.6782 13.0802 64.9132 13.4915 65.4243 13.5679C65.63 13.5972 65.9413 13.5267 66.0706 13.3799C66.194 13.2506 66.1822 12.9334 66.1176 12.7336C66.0177 12.4399 65.8238 12.1696 65.6652 11.9052C65.6241 11.8347 65.5771 11.7701 65.536 11.6996C66.0706 11.494 66.6228 11.3295 67.1986 11.2355C68.0798 11.0945 69.0081 11.1297 69.8776 11.3647C69.8482 11.4059 69.8188 11.4587 69.7895 11.4999C69.625 11.7584 69.4252 11.9934 69.2842 12.2636C69.1256 12.575 69.249 12.8922 69.5251 13.045C69.8365 13.2154 70.0421 13.0509 70.2066 12.81C70.4416 12.4634 70.6825 12.1109 70.9116 11.7584C71.6518 12.1226 72.2863 12.6572 72.727 13.3505C73.2087 14.0966 73.432 15.1012 72.9972 15.8826L73.0031 15.8944Z" fill="white" stroke="white" stroke-width="4" stroke-miterlimit="10"/>
<path d="M66.0702 13.3863C65.941 13.5273 65.6296 13.5978 65.424 13.5743C64.9129 13.4979 64.6779 13.0808 64.484 12.6578C64.4252 12.5285 64.3724 12.3993 64.3195 12.2759C64.719 12.0644 65.1244 11.8705 65.5356 11.7119C65.5767 11.7824 65.6237 11.847 65.6649 11.9175C65.8294 12.1819 66.0232 12.4522 66.1172 12.7459C66.1819 12.9457 66.1877 13.2629 66.0702 13.3922V13.3863Z" fill="white" stroke="white" stroke-width="4" stroke-miterlimit="10"/>
<path d="M70.9174 11.7647C70.6882 12.1231 70.4474 12.4697 70.2124 12.8163C70.0479 13.0572 69.8422 13.2217 69.5309 13.0513C69.2547 12.8927 69.1314 12.5813 69.29 12.27C69.431 11.9997 69.6307 11.7647 69.7952 11.5062C69.8246 11.4651 69.854 11.4122 69.8834 11.3711H69.8892C70.2476 11.471 70.5942 11.6002 70.9232 11.7647H70.9174Z" fill="white" stroke="white" stroke-width="4" stroke-miterlimit="10"/>
<path d="M65.5359 11.7056C65.1246 11.8642 64.7192 12.0522 64.3197 12.2696C64.0789 11.6997 63.8439 11.1181 63.5736 10.56C62.6512 8.67409 61.6995 6.79997 60.7536 4.93759C60.4951 4.43234 60.1837 3.96234 59.9311 3.46297C59.9017 3.41597 59.9194 3.33372 59.937 3.25734C59.9605 3.18097 60.0251 3.12809 60.1015 3.12222C60.3306 3.45709 60.5715 3.79197 60.7947 4.13272C62.381 6.65309 63.9614 9.17934 65.5417 11.7056H65.5359Z" fill="white" stroke="white" stroke-width="4" stroke-miterlimit="10"/>
<path d="M66.0702 13.3863C65.941 13.5273 65.6296 13.5978 65.424 13.5743C64.9129 13.4979 64.6779 13.0808 64.484 12.6578C64.4252 12.5285 64.3724 12.3993 64.3195 12.2759C64.719 12.0644 65.1244 11.8705 65.5356 11.7119C65.5767 11.7824 65.6237 11.847 65.6649 11.9175C65.8294 12.1819 66.0232 12.4522 66.1172 12.7459C66.1819 12.9457 66.1877 13.2629 66.0702 13.3922V13.3863Z" fill="white" stroke="white" stroke-width="4" stroke-miterlimit="10"/>
<path d="M70.677 8.18662C70.2305 8.86224 70.3363 9.33812 71.0706 9.69062C71.946 10.1195 71.9578 10.1312 71.4525 10.9479C71.2821 11.224 71.1059 11.4942 70.9179 11.7645C70.5889 11.6 70.2423 11.4707 69.8839 11.3709C70.019 11.1652 70.1541 10.9537 70.2423 10.7246C70.4185 10.2135 70.2716 9.87862 69.8075 9.59074C69.4139 9.34399 69.3786 9.20887 69.643 8.82699C70.2893 7.89287 70.9473 6.97049 71.5994 6.03637C71.6229 6.00699 71.6464 5.98937 71.6699 5.95999C71.7169 5.95999 71.7639 5.95412 71.805 5.94824C71.8109 6.05987 71.8638 6.20674 71.8109 6.28899C71.4466 6.92937 71.0765 7.56974 70.6711 8.18074L70.677 8.18662Z" fill="white" stroke="white" stroke-width="4" stroke-miterlimit="10"/>
<path d="M70.9174 11.7647C70.6882 12.1231 70.4474 12.4697 70.2124 12.8163C70.0479 13.0572 69.8422 13.2217 69.5309 13.0513C69.2547 12.8927 69.1314 12.5813 69.29 12.27C69.431 11.9997 69.6307 11.7647 69.7952 11.5062C69.8246 11.4651 69.854 11.4122 69.8834 11.3711H69.8892C70.2476 11.471 70.5942 11.6002 70.9232 11.7647H70.9174Z" fill="white" stroke="white" stroke-width="4" stroke-miterlimit="10"/>
<path d="M72.9442 5.35438C72.9442 5.71863 72.6387 6.03 72.2804 6.03588C71.9161 6.03588 71.6047 5.73038 71.5989 5.36613C71.593 5.00188 71.8926 4.69638 72.2627 4.69638C72.6387 4.6905 72.9384 4.98425 72.9442 5.3485V5.35438Z" fill="white" stroke="white" stroke-width="4" stroke-miterlimit="10"/>
<path d="M59.8611 2.7814C59.8729 3.13977 59.5615 3.4629 59.209 3.47465C58.8448 3.48052 58.5334 3.17502 58.5275 2.81077C58.5216 2.44065 58.8154 2.13515 59.1796 2.12927C59.5498 2.12927 59.8553 2.41715 59.8611 2.7814Z" fill="white" stroke="white" stroke-width="2" stroke-miterlimit="10"/>
<path d="M72.8096 16.0235C72.2104 17.1045 70.7416 17.2631 69.502 17.2807C66.8641 17.3218 64.191 17.4863 61.5531 17.4158C58.8741 17.3512 59.9258 15.436 61.4885 14.1905C62.3228 13.5266 63.1981 12.9038 64.1264 12.3986C64.1734 12.5278 64.2321 12.6571 64.2909 12.7805C64.4848 13.2093 64.7198 13.6206 65.2309 13.697C65.4365 13.7263 65.7479 13.6558 65.8771 13.509C66.0005 13.3797 65.9888 13.0625 65.9241 12.8627C65.8243 12.569 65.6304 12.2987 65.4718 12.0343C65.4306 11.9638 65.3836 11.8992 65.3425 11.8287C65.8771 11.6231 66.4294 11.4586 67.0051 11.3646C67.8864 11.2236 68.8146 11.2588 69.6841 11.4938C69.6548 11.535 69.6254 11.5878 69.596 11.629C69.4315 11.8875 69.2318 12.1225 69.0908 12.3927C68.9321 12.7041 69.0555 13.0213 69.3316 13.1741C69.643 13.3445 69.8486 13.18 70.0131 12.9391C70.2481 12.5925 70.489 12.24 70.7181 11.8875C71.4584 12.2517 72.0929 12.7863 72.5335 13.4796C73.0153 14.2257 73.2385 15.2303 72.8038 16.0117L72.8096 16.0235Z" fill="white" stroke="white" stroke-width="2" stroke-miterlimit="10"/>
<path d="M65.8768 13.5154C65.7475 13.6564 65.4361 13.7269 65.2305 13.7034C64.7194 13.627 64.4844 13.2099 64.2905 12.7869C64.2318 12.6576 64.1789 12.5284 64.126 12.405C64.5255 12.1935 64.9309 11.9996 65.3421 11.841C65.3833 11.9115 65.4303 11.9761 65.4714 12.0466C65.6359 12.311 65.8298 12.5813 65.9238 12.875C65.9884 13.0748 65.9943 13.392 65.8768 13.5213V13.5154Z" fill="white" stroke="white" stroke-width="2" stroke-miterlimit="10"/>
<path d="M70.7239 11.8938C70.4948 12.2522 70.2539 12.5988 70.0189 12.9454C69.8544 13.1863 69.6488 13.3508 69.3374 13.1804C69.0613 13.0218 68.9379 12.7104 69.0965 12.3991C69.2375 12.1288 69.4373 11.8938 69.6018 11.6353C69.6312 11.5942 69.6605 11.5413 69.6899 11.5002H69.6958C70.0542 11.6001 70.4008 11.7293 70.7298 11.8938H70.7239Z" fill="white" stroke="white" stroke-width="2" stroke-miterlimit="10"/>
<path d="M65.348 11.8345C64.9368 11.9932 64.5314 12.1812 64.1319 12.3985C63.891 11.8287 63.656 11.247 63.3858 10.6889C62.4634 8.80303 61.5117 6.92891 60.5658 5.06653C60.3073 4.56128 59.9959 4.09128 59.7433 3.59191C59.7139 3.54491 59.7315 3.46266 59.7492 3.38628C59.7727 3.30991 59.8373 3.25703 59.9137 3.25116C60.1428 3.58603 60.3837 3.92091 60.6069 4.26166C62.1932 6.78203 63.7735 9.30828 65.3539 11.8345H65.348Z" fill="white" stroke="white" stroke-width="2" stroke-miterlimit="10"/>
<path d="M65.8768 13.5154C65.7475 13.6564 65.4361 13.7269 65.2305 13.7034C64.7194 13.627 64.4844 13.2099 64.2905 12.7869C64.2318 12.6576 64.1789 12.5284 64.126 12.405C64.5255 12.1935 64.9309 11.9996 65.3421 11.841C65.3833 11.9115 65.4303 11.9761 65.4714 12.0466C65.6359 12.311 65.8298 12.5813 65.9238 12.875C65.9884 13.0748 65.9943 13.392 65.8768 13.5213V13.5154Z" fill="white" stroke="white" stroke-width="2" stroke-miterlimit="10"/>
<path d="M70.4834 8.31549C70.0369 8.99111 70.1426 9.46699 70.877 9.81949C71.7524 10.2484 71.7641 10.2601 71.2589 11.0767C71.0885 11.3529 70.9122 11.6231 70.7242 11.8934C70.3952 11.7289 70.0486 11.5996 69.6902 11.4997C69.8254 11.2941 69.9605 11.0826 70.0486 10.8535C70.2249 10.3424 70.078 10.0075 69.6139 9.71961C69.2202 9.47286 69.185 9.33774 69.4494 8.95586C70.0956 8.02174 70.7536 7.09936 71.4057 6.16524C71.4292 6.13586 71.4527 6.11824 71.4762 6.08886C71.5232 6.08886 71.5702 6.08299 71.6114 6.07711C71.6172 6.18874 71.6701 6.33561 71.6172 6.41786C71.253 7.05824 70.8829 7.69861 70.4775 8.30961L70.4834 8.31549Z" fill="white" stroke="white" stroke-width="2" stroke-miterlimit="10"/>
<path d="M70.7239 11.8938C70.4948 12.2522 70.2539 12.5988 70.0189 12.9454C69.8544 13.1863 69.6488 13.3508 69.3374 13.1804C69.0613 13.0218 68.9379 12.7104 69.0965 12.3991C69.2375 12.1288 69.4373 11.8938 69.6018 11.6353C69.6312 11.5942 69.6605 11.5413 69.6899 11.5002H69.6958C70.0542 11.6001 70.4008 11.7293 70.7298 11.8938H70.7239Z" fill="white" stroke="white" stroke-width="2" stroke-miterlimit="10"/>
<path d="M72.7566 5.48347C72.7566 5.84772 72.4511 6.15909 72.0928 6.16497C71.7285 6.16497 71.4171 5.85947 71.4113 5.49521C71.4054 5.13096 71.705 4.82547 72.0751 4.82547C72.4511 4.81959 72.7508 5.11334 72.7566 5.47759V5.48347Z" fill="white" stroke="white" stroke-width="2" stroke-miterlimit="10"/>
<path d="M59.8611 2.7814C59.8729 3.13977 59.5615 3.4629 59.209 3.47465C58.8448 3.48052 58.5334 3.17502 58.5275 2.81077C58.5216 2.44065 58.8154 2.13515 59.1796 2.12927C59.5498 2.12927 59.8553 2.41715 59.8611 2.7814Z" fill="#EA066D"/>
<path d="M72.8096 16.0235C72.2104 17.1045 70.7416 17.2631 69.502 17.2807C66.8641 17.3218 64.191 17.4863 61.5531 17.4158C58.8741 17.3512 59.9258 15.436 61.4885 14.1905C62.3228 13.5266 63.1981 12.9038 64.1264 12.3986C64.1734 12.5278 64.2321 12.6571 64.2909 12.7805C64.4848 13.2093 64.7198 13.6206 65.2309 13.697C65.4365 13.7263 65.7479 13.6558 65.8771 13.509C66.0005 13.3797 65.9888 13.0625 65.9241 12.8627C65.8243 12.569 65.6304 12.2987 65.4718 12.0343C65.4306 11.9638 65.3836 11.8992 65.3425 11.8287C65.8771 11.6231 66.4294 11.4586 67.0051 11.3646C67.8864 11.2236 68.8146 11.2588 69.6841 11.4938C69.6548 11.535 69.6254 11.5878 69.596 11.629C69.4315 11.8875 69.2318 12.1225 69.0908 12.3927C68.9321 12.7041 69.0555 13.0213 69.3316 13.1741C69.643 13.3445 69.8486 13.18 70.0131 12.9391C70.2481 12.5925 70.489 12.24 70.7181 11.8875C71.4584 12.2517 72.0929 12.7863 72.5335 13.4796C73.0153 14.2257 73.2385 15.2303 72.8038 16.0117L72.8096 16.0235Z" fill="#FF2D85"/>
<path d="M65.8768 13.5154C65.7475 13.6564 65.4361 13.7269 65.2305 13.7034C64.7194 13.627 64.4844 13.2099 64.2905 12.7869C64.2318 12.6576 64.1789 12.5284 64.126 12.405C64.5255 12.1935 64.9309 11.9996 65.3421 11.841C65.3833 11.9115 65.4303 11.9761 65.4714 12.0466C65.6359 12.311 65.8298 12.5813 65.9238 12.875C65.9884 13.0748 65.9943 13.392 65.8768 13.5213V13.5154Z" fill="#EA066D"/>
<path d="M70.7239 11.8938C70.4948 12.2522 70.2539 12.5988 70.0189 12.9454C69.8544 13.1863 69.6488 13.3508 69.3374 13.1804C69.0613 13.0218 68.9379 12.7104 69.0965 12.3991C69.2375 12.1288 69.4373 11.8938 69.6018 11.6353C69.6312 11.5942 69.6605 11.5413 69.6899 11.5002H69.6958C70.0542 11.6001 70.4008 11.7293 70.7298 11.8938H70.7239Z" fill="#EA066D"/>
<path d="M65.348 11.8345C64.9368 11.9932 64.5314 12.1812 64.1319 12.3985C63.891 11.8287 63.656 11.247 63.3858 10.6889C62.4634 8.80303 61.5117 6.92891 60.5658 5.06653C60.3073 4.56128 59.9959 4.09128 59.7433 3.59191C59.7139 3.54491 59.7315 3.46266 59.7492 3.38628C59.7727 3.30991 59.8373 3.25703 59.9137 3.25116C60.1428 3.58603 60.3837 3.92091 60.6069 4.26166C62.1932 6.78203 63.7735 9.30828 65.3539 11.8345H65.348Z" fill="#EA066D"/>
<path d="M65.8768 13.5154C65.7475 13.6564 65.4361 13.7269 65.2305 13.7034C64.7194 13.627 64.4844 13.2099 64.2905 12.7869C64.2318 12.6576 64.1789 12.5284 64.126 12.405C64.5255 12.1935 64.9309 11.9996 65.3421 11.841C65.3833 11.9115 65.4303 11.9761 65.4714 12.0466C65.6359 12.311 65.8298 12.5813 65.9238 12.875C65.9884 13.0748 65.9943 13.392 65.8768 13.5213V13.5154Z" fill="#C10046"/>
<path d="M70.4834 8.31549C70.0369 8.99111 70.1426 9.46699 70.877 9.81949C71.7524 10.2484 71.7641 10.2601 71.2589 11.0767C71.0885 11.3529 70.9122 11.6231 70.7242 11.8934C70.3952 11.7289 70.0486 11.5996 69.6902 11.4997C69.8254 11.2941 69.9605 11.0826 70.0486 10.8535C70.2249 10.3424 70.078 10.0075 69.6139 9.71961C69.2202 9.47286 69.185 9.33774 69.4494 8.95586C70.0956 8.02174 70.7536 7.09936 71.4057 6.16524C71.4292 6.13586 71.4527 6.11824 71.4762 6.08886C71.5232 6.08886 71.5702 6.08299 71.6114 6.07711C71.6172 6.18874 71.6701 6.33561 71.6172 6.41786C71.253 7.05824 70.8829 7.69861 70.4775 8.30961L70.4834 8.31549Z" fill="#EA066D"/>
<path d="M70.7239 11.8938C70.4948 12.2522 70.2539 12.5988 70.0189 12.9454C69.8544 13.1863 69.6488 13.3508 69.3374 13.1804C69.0613 13.0218 68.9379 12.7104 69.0965 12.3991C69.2375 12.1288 69.4373 11.8938 69.6018 11.6353C69.6312 11.5942 69.6605 11.5413 69.6899 11.5002H69.6958C70.0542 11.6001 70.4008 11.7293 70.7298 11.8938H70.7239Z" fill="#C10046"/>
<path d="M72.7566 5.48347C72.7566 5.84772 72.4511 6.15909 72.0928 6.16497C71.7285 6.16497 71.4171 5.85947 71.4113 5.49521C71.4054 5.13096 71.705 4.82547 72.0751 4.82547C72.4511 4.81959 72.7508 5.11334 72.7566 5.47759V5.48347Z" fill="#EA066D"/>
<path d="M149.084 19.5311C147.997 17.1282 145.859 15.918 142.68 15.918C138.262 15.918 134.091 15.918 130.184 16.1882C124.186 16.6347 123.722 22.8622 123.722 24.7598C123.722 29.0545 124.233 33.9777 124.497 35.9811C125.202 41.0747 128.01 43.8771 132.405 43.8771C136.799 43.8771 140.072 43.8066 143.738 43.4482C147.88 43.131 149.607 40.7398 149.713 35.1762C149.713 35.0822 149.719 34.9941 149.719 34.9001C149.754 32.9555 149.789 31.1636 149.824 29.5715C149.871 27.2508 149.912 25.4178 149.912 24.1312C149.912 22.2865 149.63 20.7531 149.084 19.5311ZM144.484 38.6483C140.53 39.1477 135.031 39.6588 130.789 39.9232H130.684C130.261 39.9232 129.855 39.7646 129.538 39.4767C129.191 39.1595 128.992 38.7306 128.98 38.2606C128.915 36.081 128.851 33.7486 128.851 31.3751C128.851 29.5773 128.886 28.0322 128.962 26.5223C129.009 25.647 129.702 24.9478 130.572 24.895C134.661 24.6541 138.897 24.6247 143.074 24.9008C143.861 24.9478 144.513 25.5295 144.654 26.305C145.301 29.8535 145.671 33.449 145.97 36.7977C146.053 37.7201 145.4 38.5367 144.484 38.6483Z" fill="#B0D833"/>
<path d="M166.046 30.2232L171.933 18.4967C172.127 18.109 172.526 17.874 172.955 17.8799L179.353 18.0385C179.981 18.0561 180.475 18.5907 180.44 19.2194L178.936 44.7639C178.912 45.2104 178.624 45.5922 178.201 45.745L175.657 46.6732C174.929 46.9376 174.153 46.3971 174.159 45.6216C174.189 42.0202 173.513 36.1335 172.849 31.2749C172.702 30.2115 171.275 29.9471 170.764 30.893C170.029 32.2442 169.383 33.6307 168.889 35.0114C168.684 35.5871 168.155 35.9749 167.544 36.016L163.578 36.2862C163.22 36.3097 162.879 36.0982 162.75 35.7634L162.368 34.7881C161.904 33.6072 160.142 33.995 160.218 35.264L160.67 42.8839C160.717 43.6359 160.018 44.2175 159.284 44.0354L156.094 43.2364C155.63 43.1189 155.289 42.7252 155.254 42.2494C154.977 38.8419 153.767 25.2824 151.458 18.1912C151.223 17.4745 151.758 16.7401 152.516 16.7342C154.302 16.7342 157.116 16.7284 158.414 16.7225C158.837 16.7225 159.231 16.9634 159.419 17.3452L165.758 30.2232C165.817 30.3407 165.981 30.3407 166.04 30.2232H166.046Z" fill="#5A9D00"/>
</svg>
