<svg width="282" height="80" viewBox="0 0 282 80" fill="none" xmlns="http://www.w3.org/2000/svg">
<g clip-path="url(#clip0_2034_794)">
<path d="M20.1015 67.3276C14.3638 67.3276 10.9283 64.7138 9.80163 59.4828C9.00056 55.9965 8.60329 51.3655 8.60329 45.5862L8.67493 35.2034V32.7379C8.67493 32.1414 8.62608 31.1931 8.5349 29.9C8.39488 28.4069 8.32324 26.8621 8.32324 25.269C8.32324 22.0828 8.81821 19.6172 9.80488 17.8724C10.746 16.2793 12.1429 15.2207 14.0023 14.6965C15.8584 14.1724 18.1053 13.9138 20.7397 13.9138L25.608 13.9897L28.3596 13.9138C32.0295 13.9138 35.2044 14.4241 37.8844 15.4448C40.5644 16.4655 42.4238 18.3965 43.4593 21.2345C43.9282 22.431 44.1659 23.7241 44.1659 25.1207C44.1659 27.5103 43.5407 29.9034 42.2967 32.2931C41.0496 34.6828 39.5093 36.7276 37.676 38.4207C38.946 39.7172 39.9098 41.2965 40.5676 43.1655C41.2254 45.0345 41.5543 47.0138 41.5543 49.1034C41.5543 50.8965 41.3068 52.6655 40.8151 54.4069C40.3201 56.1517 39.6265 57.6931 38.7343 59.0379C35.631 63.6207 30.2678 66.3345 22.6479 67.1828C21.518 67.2828 20.6713 67.331 20.108 67.331L20.1015 67.3276ZM25.7447 54.4793C27.6725 53.6828 28.848 52.3379 29.2713 50.4448C29.3658 49.9483 29.4114 49.5759 29.4114 49.3241C29.4114 48.031 28.8578 47.1207 27.7539 46.5965C26.6467 46.0724 25.3442 45.8103 23.8398 45.8103C22.4753 45.8103 21.4626 45.8965 20.8048 46.0724C20.1438 46.2483 19.6293 46.7069 19.2516 47.4552C19.0171 47.9034 18.8999 48.7517 18.8999 49.9965C18.8999 50.7448 18.9455 51.8138 19.0399 53.2103C19.0399 53.5103 19.0757 53.969 19.1474 54.5931C19.219 55.2172 19.2288 55.7034 19.1832 56.0483C21.6287 55.8 23.8137 55.2759 25.7447 54.4793ZM20.7365 33.1862C21.3454 33.1862 21.9478 33.1621 22.534 33.1103C23.1201 33.0621 23.5565 33.0103 23.8398 32.9621C25.2986 32.8138 26.51 32.5759 27.4738 32.2517C28.4377 31.9276 29.1769 31.3172 29.6947 30.4207C29.8835 30.0241 29.978 29.7241 29.978 29.5241C29.978 28.6276 29.3072 27.9069 27.9655 27.3586C26.6239 26.8103 25.1553 26.5379 23.5565 26.5379C22.5698 26.5379 21.7101 26.6621 20.9807 26.9103C20.2513 27.1586 19.7921 27.5345 19.6065 28.031C19.5577 28.2793 19.5121 28.6931 19.4665 29.2621C19.4176 29.8345 19.3948 30.469 19.3948 31.169C19.3948 32.2655 19.4665 32.8862 19.6065 33.0379C19.7009 33.1379 20.0754 33.1862 20.7365 33.1862Z" fill="white"/>
<path d="M65.1693 67.3276C63.3815 67.3276 60.7471 67.0034 57.2661 66.3552L55.6444 66.0552C52.3523 65.5069 49.7765 64.4 47.9204 62.731C46.061 61.0621 44.9929 58.5862 44.7096 55.2966C44.4751 52.8552 44.3579 49.8414 44.3579 46.2552C44.3579 43.9138 44.4035 40.5517 44.4979 36.169V33.8517C44.4979 30.5655 44.6966 27.6897 45.0971 25.2241C45.4976 22.7586 46.3541 20.7034 47.6729 19.0621C48.9884 17.369 50.5417 16.5207 52.3295 16.5207C53.5994 16.5207 54.775 16.9828 55.8561 17.9034C56.9372 18.8241 57.7122 20.1069 58.1844 21.7517C59.031 24.3931 59.4544 27.7035 59.4544 31.6897C59.4544 33.4345 59.3599 36 59.1743 39.3862L58.9626 43.1207C58.9626 43.469 58.9138 44.0414 58.8226 44.8379C58.6826 45.6345 58.611 46.4828 58.611 47.3793C58.611 47.8276 58.6338 48.1517 58.6826 48.3517C58.7282 48.7 58.7901 49.1621 58.8584 49.7345C58.9301 50.3069 59.2232 50.5931 59.7409 50.5931C60.2587 50.5931 60.7504 50.6448 61.2226 50.7414C61.9292 50.8897 63.0331 51.0172 64.5375 51.1138C66.0908 51.2138 67.325 51.3621 68.2432 51.5621C69.1615 51.7621 70.0896 52.1862 71.0307 52.831C72.0629 53.5276 72.8412 54.4621 73.359 55.631C73.8767 56.8035 74.134 58.0586 74.134 59.4035C74.134 60.7483 73.8409 62.0931 73.2515 63.2897C72.6621 64.4862 71.7796 65.431 70.6074 66.1276C69.2885 66.9241 67.478 67.3241 65.1758 67.3241L65.1693 67.3276Z" fill="white"/>
<path d="M123.673 65.3483C122.12 64.8241 120.921 63.9172 120.075 62.6207C119.414 61.6241 119.088 60.6034 119.088 59.5586C119.088 58.2655 119.619 57.1793 120.677 56.3103C121.736 55.4379 123.015 55.0276 124.523 55.0793C125.415 55.0793 126.64 55.4034 128.193 56.0517C130.17 56.7483 131.602 57.0965 132.498 57.0965C133.953 57.0965 135.083 56.4 135.884 55.0034C136.308 54.2552 136.519 53.5828 136.519 52.9862C136.519 51.7896 135.979 50.7345 134.898 49.8103C133.813 48.8896 132.475 48.0069 130.876 47.1586C124.386 43.8241 121.14 38.7172 121.14 31.8448C121.14 30.8483 121.211 29.8276 121.351 28.7827C121.915 24.5483 123.527 20.8759 126.184 17.7621C128.841 14.6483 132.12 12.4965 136.024 11.3C138.001 10.6517 139.997 10.3276 142.023 10.3276C144.514 10.3276 146.562 10.8759 148.161 11.9724C148.959 12.4724 149.62 13.1793 150.137 14.1034C150.655 15.0241 150.912 15.9345 150.912 16.831C150.912 17.5793 150.688 18.2621 150.242 18.8862C149.796 19.5103 149.125 19.969 148.232 20.269C145.175 21.2655 142.482 22.7827 140.153 24.8276C137.825 26.869 136.663 29.0621 136.663 31.4034C136.663 33.7448 137.838 35.8862 140.189 37.9793C141.27 38.9276 142.234 39.6965 143.081 40.2965C144.68 41.5931 145.927 42.7 146.819 43.6207C147.711 44.5414 148.464 45.7 149.076 47.0931C149.968 49.1345 150.417 51.2759 150.417 53.5172C150.417 55.5103 150.066 57.4034 149.359 59.1965C148.229 62.1345 146.406 64.2276 143.892 65.4724C141.375 66.7172 138.47 67.3414 135.178 67.3414C133.296 67.3414 131.508 67.1931 129.818 66.8931C127.278 66.3965 125.233 65.8862 123.68 65.3621L123.673 65.3483Z" fill="white"/>
<path d="M155.23 65.3483C153.677 64.8241 152.479 63.9172 151.632 62.6207C150.974 61.6241 150.645 60.6034 150.645 59.5586C150.645 58.2655 151.176 57.1793 152.231 56.3103C153.289 55.4379 154.569 55.0276 156.077 55.0793C156.969 55.0793 158.193 55.4034 159.747 56.0517C161.723 56.7483 163.156 57.0965 164.052 57.0965C165.511 57.0965 166.637 56.4 167.438 55.0034C167.862 54.2552 168.073 53.5828 168.073 52.9862C168.073 51.7896 167.533 50.7345 166.452 49.8103C165.37 48.8896 164.029 48.0069 162.43 47.1586C155.94 43.8241 152.694 38.7172 152.694 31.8448C152.694 30.8483 152.765 29.8276 152.905 28.7827C153.469 24.5483 155.08 20.8759 157.738 17.7621C160.395 14.6483 163.674 12.4965 167.578 11.3C169.555 10.6517 171.551 10.3276 173.573 10.3276C176.064 10.3276 178.113 10.8759 179.711 11.9724C180.509 12.4724 181.167 13.1793 181.685 14.1034C182.203 15.0241 182.46 15.9345 182.46 16.831C182.46 17.5793 182.235 18.2621 181.789 18.8862C181.343 19.5103 180.672 19.969 179.78 20.269C176.722 21.2655 174.029 22.7827 171.701 24.8276C169.373 26.869 168.207 29.0621 168.207 31.4034C168.207 33.7448 169.382 35.8862 171.733 37.9793C172.815 38.9276 173.778 39.6965 174.625 40.2965C176.224 41.5931 177.471 42.7 178.363 43.6207C179.256 44.5414 180.008 45.7 180.62 47.0931C181.512 49.1345 181.962 51.2759 181.962 53.5172C181.962 55.5103 181.61 57.4034 180.903 59.1965C179.773 62.1345 177.95 64.2276 175.436 65.4724C172.919 66.7172 170.014 67.3414 166.722 67.3414C164.84 67.3414 163.052 67.1931 161.359 66.8931C158.819 66.3965 156.774 65.8862 155.22 65.3621L155.23 65.3483Z" fill="white"/>
<path d="M263.452 64.9C262.794 63.2827 262.416 61.2276 262.322 58.7379C262.182 56.5483 262.11 54.3552 262.11 52.1621C262.016 47.6793 261.827 44.2931 261.547 42L259.925 43.7931C258.137 45.8862 256.561 47.5034 255.197 48.6483C253.833 49.7931 252.396 50.3655 250.892 50.3655C249.293 50.3655 247.906 49.6069 246.73 48.0862C245.555 46.569 244.308 44.4896 242.992 41.8483C242.286 40.4034 241.839 39.5586 241.651 39.3069C241.038 40.8 240.628 42.3827 240.416 44.0517C240.205 45.7207 240.052 47.8483 239.957 50.4379C239.863 53.7241 239.628 56.4517 239.251 58.6172C238.873 60.7827 238.052 62.7621 236.782 64.5552C235.652 66.1483 234.337 66.9448 232.832 66.9448C231.328 66.9448 230.081 66.1241 228.951 64.4793C227.866 62.7379 227.329 60.5448 227.329 57.9034C227.329 56.7069 227.469 55.0138 227.752 52.8241L227.964 50.9552C228.339 46.8207 229.094 40.869 230.221 33.1L230.432 31.231C230.761 28.9414 231.077 27.1483 231.387 25.8517C231.693 24.5586 232.243 23.3862 233.044 22.3414C234.503 20.5 236.125 19.5759 237.912 19.5759C240.169 19.5759 242.439 20.7345 244.721 23.0483C247.001 25.3655 249.085 27.969 250.967 30.8552C253.035 27.4172 255.129 24.469 257.245 22.0034C259.362 19.5379 261.618 18.3069 264.018 18.3069C265.572 18.3069 267.004 18.931 268.323 20.1758C269.31 21.0724 270.004 22.1931 270.404 23.5379C270.805 24.8827 271.147 26.6 271.427 28.6931C271.521 28.9931 271.615 29.5414 271.71 30.3379C272.742 36.6138 273.354 42.1414 273.543 46.9241C273.638 48.1207 273.683 49.5379 273.683 51.1827C273.683 55.4655 273.26 59.2276 272.413 62.4655C271.567 65.7034 269.968 67.3207 267.617 67.3207C265.5 67.3207 264.113 66.5103 263.455 64.8931L263.452 64.9Z" fill="white"/>
<path d="M206.533 67.4806C221.193 66.4087 232.337 54.1932 231.425 40.1966C230.512 26.2 217.888 15.7225 203.228 16.7944C188.568 17.8664 177.423 30.0818 178.336 44.0785C179.249 58.0751 191.873 68.5526 206.533 67.4806Z" fill="#FF7000"/>
<path d="M204.115 62.8059C218.775 61.734 229.919 49.5185 229.007 35.5219C228.094 21.5253 215.47 11.0478 200.81 12.1197C186.149 13.1917 175.005 25.4071 175.918 39.4037C176.83 53.4004 189.455 63.8779 204.115 62.8059Z" fill="#FFB500"/>
<path d="M223.721 68.8655C218.872 68.8655 210.722 65.731 209.051 65.0655C207.931 65.3172 202.154 66.4897 195.234 65.6138C186.475 64.5034 179.099 58.7828 175.507 50.3069C172.013 42.0586 172.834 32.7103 177.705 25.2931C181.099 20.131 184.987 17.3586 185.149 17.2448C198.107 7.60345 209.266 8.58965 216.339 11.1138C222.891 13.4517 228.13 18.8034 230.716 25.7931C237.407 43.8897 223.903 56.569 220.751 59.2138L226.688 64.5897C227.296 65.1414 227.599 65.9621 227.476 66.731C227.368 67.4035 226.997 67.9483 226.404 68.3103C225.759 68.7034 224.825 68.8655 223.721 68.8655ZM209.142 63.6931L209.318 63.7655C213.011 65.2517 223.164 68.7586 225.782 67.169C226.056 67.0034 226.199 66.8034 226.245 66.5172C226.297 66.2034 226.153 65.8483 225.873 65.5965L218.739 59.1345L219.4 58.6448C219.572 58.5172 236.701 45.6103 229.55 26.2793C227.098 19.6517 222.138 14.5828 215.938 12.369C209.139 9.94138 198.396 9.00345 185.85 18.3379C185.797 18.3724 181.975 21.1069 178.725 26.0517C174.104 33.0828 173.326 41.9483 176.641 49.769C180.053 57.8172 187.058 63.2517 195.381 64.3069C202.704 65.2345 208.895 63.7552 208.957 63.7414L209.142 63.6966V63.6931Z" fill="black"/>
<path d="M214.746 39.5138C214.746 39.5138 212.102 49.3517 211.65 55.2069C211.65 55.2069 211.077 55.4448 209.989 55.7069C207.556 56.3 202.571 57.031 195.749 55.569C195.244 55.4621 194.73 55.3379 194.199 55.2069C194.199 55.2069 193.105 46.1448 190.829 39.5138C190.829 39.5138 203.955 46.3345 214.743 39.5138H214.746Z" fill="black"/>
<path d="M190.887 39.6689C199.201 43.2517 206.527 44.3241 214.707 39.6931C209.015 47.8069 196.928 46.8 190.887 39.6689Z" fill="white"/>
<path d="M193.359 39.5483C191.818 39.5379 190.386 39.8241 188.982 40.469L188.933 40.431C189.044 39.9759 189.425 39.6517 189.803 39.4621C190.943 39.0276 192.222 39.2483 193.372 39.4862L193.362 39.5517L193.359 39.5483Z" fill="black"/>
<path d="M212.027 39.4827C213.366 39.2345 215.837 38.6931 216.462 40.4276L216.414 40.469C215.694 40.1103 215.072 39.9896 214.326 39.7586C213.587 39.6103 212.812 39.5483 212.037 39.5483L212.027 39.4827Z" fill="black"/>
<path d="M209.989 55.7069C207.556 56.3 202.571 57.031 195.749 55.5689C195.947 55.2862 198.702 51.4345 202.838 53.5655C202.838 53.5655 207.42 51.1414 209.989 55.7069Z" fill="#AE284B"/>
<g opacity="0.5">
<path d="M202.379 54.8425C202.385 54.3798 201.491 53.9928 200.384 53.9783C199.276 53.9638 198.373 54.3271 198.368 54.7899C198.363 55.2526 199.256 55.6395 200.364 55.654C201.472 55.6686 202.374 55.3052 202.379 54.8425Z" fill="#E93B76"/>
</g>
<g opacity="0.5">
<path d="M207.404 54.9092C207.41 54.4465 206.516 54.0596 205.408 54.0451C204.301 54.0305 203.398 54.3939 203.393 54.8566C203.387 55.3193 204.281 55.7062 205.389 55.7208C206.497 55.7353 207.399 55.372 207.404 54.9092Z" fill="#E93B76"/>
</g>
<mask id="mask0_2034_794" style="mask-type:luminance" maskUnits="userSpaceOnUse" x="205" y="21" width="17" height="16">
<path d="M221.992 29.9621C221.992 31.7138 221.513 33.3517 220.686 34.7276C220.614 34.8483 220.543 34.969 220.465 35.0828C220.393 35.0759 220.321 35.0759 220.243 35.069C215.779 34.7655 210.757 35.6345 207.892 36.2552C207.82 36.269 207.749 36.2862 207.677 36.3C207.618 36.2379 207.557 36.1793 207.498 36.1103C206.059 34.5172 205.173 32.3483 205.173 29.9621C205.173 25.0448 208.937 21.0586 213.581 21.0586C218.224 21.0586 221.989 25.0448 221.989 29.9621H221.992Z" fill="white"/>
</mask>
<g mask="url(#mask0_2034_794)">
<path d="M221.992 31.4276L205.176 33.2862V21.0586H221.992V31.4276Z" fill="white"/>
<path d="M221.992 31.4965L205.176 33.3586V33.2862L221.992 31.4276V31.4965Z" fill="white"/>
<path d="M221.992 31.5655L205.176 33.4276V33.3586L221.992 31.4966V31.5655Z" fill="#FDFDFD"/>
<path d="M221.992 31.6379L205.176 33.4966V33.4276L221.992 31.5655V31.6379Z" fill="#FCFCFC"/>
<path d="M221.992 31.7069L205.176 33.569V33.4966L221.992 31.6379V31.7069Z" fill="#FBFBFB"/>
<path d="M221.992 31.7759L205.176 33.6379V33.569L221.992 31.7069V31.7759Z" fill="#FAFAFA"/>
<path d="M221.992 31.8483L205.176 33.7069V33.6379L221.992 31.7759V31.8483Z" fill="#F9F9F9"/>
<path d="M221.992 31.9172L205.176 33.7793V33.7069L221.992 31.8483V31.9172Z" fill="#F8F8F8"/>
<path d="M221.992 31.9862L205.176 33.8483V33.7793L221.992 31.9172V31.9862Z" fill="#F7F7F7"/>
<path d="M221.992 32.0586L205.176 33.9207V33.8483L221.992 31.9862V32.0586Z" fill="#F6F6F6"/>
<path d="M221.992 32.1276L205.176 33.9897V33.9207L221.992 32.0586V32.1276Z" fill="#F5F5F5"/>
<path d="M221.992 32.2L205.176 34.0586V33.9897L221.992 32.1276V32.2Z" fill="#F4F4F4"/>
<path d="M221.992 32.269L205.176 34.131V34.0586L221.992 32.2V32.269Z" fill="#F3F3F3"/>
<path d="M221.992 32.3379L205.176 34.2V34.1311L221.992 32.269V32.3379Z" fill="#F2F2F2"/>
<path d="M221.992 32.4103L205.176 34.269V34.2L221.992 32.3379V32.4103Z" fill="#F1F1F1"/>
<path d="M221.992 32.4793L205.176 34.3414V34.269L221.992 32.4103V32.4793Z" fill="#F0F0F0"/>
<path d="M221.992 32.5483L205.176 34.4103V34.3414L221.992 32.4793V32.5483Z" fill="#EFEFEF"/>
<path d="M221.992 32.6207L205.176 34.4793V34.4103L221.992 32.5483V32.6207Z" fill="#EEEEEE"/>
<path d="M221.992 32.6897L205.176 34.5517V34.4793L221.992 32.6207V32.6897Z" fill="#EDEDED"/>
<path d="M221.992 32.7586L205.176 34.6207V34.5517L221.992 32.6897V32.7586Z" fill="#ECECEC"/>
<path d="M221.992 32.831L205.176 34.6931V34.6207L221.992 32.7586V32.831Z" fill="#EBEBEB"/>
<path d="M221.992 32.9L205.176 34.7621V34.6931L221.992 32.831V32.9Z" fill="#EAEAEA"/>
<path d="M221.992 32.9724L205.176 34.831V34.7621L221.992 32.9V32.9724Z" fill="#E9E9E9"/>
<path d="M221.992 33.0414L205.176 34.9034V34.831L221.992 32.9724V33.0414Z" fill="#E8E8E8"/>
<path d="M221.992 33.1103L205.176 34.9724V34.9035L221.992 33.0414V33.1103Z" fill="#E7E7E7"/>
<path d="M221.992 33.1828L205.176 35.0414V34.9724L221.992 33.1104V33.1828Z" fill="#E6E6E6"/>
<path d="M221.992 33.2517L205.176 35.1138V35.0414L221.992 33.1828V33.2517Z" fill="#E5E5E5"/>
<path d="M221.992 33.3207L205.176 35.1828V35.1138L221.992 33.2517V33.3207Z" fill="#E4E4E4"/>
<path d="M221.992 33.3931L205.176 35.2517V35.1827L221.992 33.3207V33.3931Z" fill="#E3E3E3"/>
<path d="M221.992 33.4621L205.176 35.3241V35.2517L221.992 33.3931V33.4621Z" fill="#E2E2E2"/>
<path d="M221.992 33.531L205.176 35.3931V35.3241L221.992 33.4621V33.531Z" fill="#E1E1E1"/>
<path d="M221.992 33.6034L205.176 35.4655V35.3931L221.992 33.531V33.6034Z" fill="#E0E0E0"/>
<path d="M221.992 33.6724L205.176 35.5345V35.4655L221.992 33.6035V33.6724Z" fill="#DFDFDF"/>
<path d="M221.992 33.7448L205.176 35.6035V35.5345L221.992 33.6724V33.7448Z" fill="#DEDEDE"/>
<path d="M221.992 33.8138L205.176 35.6759V35.6035L221.992 33.7448V33.8138Z" fill="#DDDDDD"/>
<path d="M221.992 33.8827L205.176 35.7448V35.6759L221.992 33.8138V33.8827Z" fill="#DCDCDC"/>
<path d="M221.992 33.9552L205.176 35.8138V35.7448L221.992 33.8828V33.9552Z" fill="#DBDBDB"/>
<path d="M221.992 34.0241L205.176 35.8862V35.8138L221.992 33.9552V34.0241Z" fill="#DADADA"/>
<path d="M221.992 34.0931L205.176 35.9552V35.8862L221.992 34.0241V34.0931Z" fill="#D9D9D9"/>
<path d="M221.992 34.1655L205.176 36.0241V35.9552L221.992 34.0931V34.1655Z" fill="#D8D8D8"/>
<path d="M221.992 34.2345L205.176 36.0966V36.0241L221.992 34.1655V34.2345Z" fill="#D7D7D7"/>
<path d="M221.992 34.3035L205.176 36.1655V36.0966L221.992 34.2345V34.3035Z" fill="#D6D6D6"/>
<path d="M221.992 34.3759L205.176 36.2379V36.1655L221.992 34.3035V34.3759Z" fill="#D5D5D5"/>
<path d="M221.992 34.4448L205.245 36.3H205.176V36.2379L221.992 34.3759V34.4448Z" fill="#D4D4D4"/>
<path d="M221.992 34.5172L205.876 36.3H205.244L221.992 34.4448V34.5172Z" fill="#D3D3D3"/>
<path d="M221.992 34.5862L206.511 36.3H205.876L221.992 34.5172V34.5862Z" fill="#D2D2D2"/>
<path d="M221.992 34.6552L207.146 36.3H206.511L221.992 34.5862V34.6552Z" fill="#D1D1D1"/>
<path d="M221.992 34.7276L207.781 36.3H207.146L221.992 34.6552V34.7276Z" fill="#D0D0D0"/>
<path d="M221.992 34.7966L208.416 36.3H207.781L221.992 34.7276V34.7966Z" fill="#CFCFCF"/>
<path d="M221.992 34.8655L209.051 36.3H208.416L221.992 34.7966V34.8655Z" fill="#CECECE"/>
<path d="M221.992 34.9379L209.683 36.3H209.051L221.992 34.8655V34.9379Z" fill="#CDCDCD"/>
<path d="M221.992 35.0069L210.318 36.3H209.683L221.992 34.9379V35.0069Z" fill="#CCCCCC"/>
<path d="M221.992 35.0759L210.953 36.3H210.318L221.992 35.0069V35.0759Z" fill="#CBCBCB"/>
<path d="M221.992 35.1483L211.588 36.3H210.953L221.992 35.0759V35.1483Z" fill="#CACACA"/>
<path d="M221.992 35.2172L212.223 36.3H211.588L221.992 35.1483V35.2172Z" fill="#C9C9C9"/>
<path d="M221.992 35.2897L212.858 36.3H212.223L221.992 35.2173V35.2897Z" fill="#C8C8C8"/>
<path d="M221.992 35.3586L213.489 36.3H212.858L221.992 35.2897V35.3586Z" fill="#C7C7C7"/>
<path d="M221.992 35.4276L214.124 36.3H213.49L221.992 35.3586V35.4276Z" fill="#C6C6C6"/>
<path d="M221.992 35.5L214.76 36.3H214.125L221.992 35.4276V35.5Z" fill="#C5C5C5"/>
<path d="M221.992 35.569L215.395 36.3H214.76L221.992 35.5V35.569Z" fill="#C4C4C4"/>
<path d="M221.992 35.6379L216.03 36.3H215.395L221.992 35.569V35.6379Z" fill="#C3C3C3"/>
<path d="M221.992 35.7104L216.665 36.3H216.03L221.992 35.6379V35.7104Z" fill="#C2C2C2"/>
<path d="M221.992 35.7793L217.3 36.3H216.665L221.992 35.7104V35.7793Z" fill="#C1C1C1"/>
<path d="M221.992 35.8483L217.931 36.3H217.3L221.992 35.7793V35.8483Z" fill="#C0C0C0"/>
<path d="M221.992 35.9207L218.566 36.3H217.931L221.992 35.8483V35.9207Z" fill="#BFBFBF"/>
<path d="M221.992 35.9897L219.201 36.3H218.566L221.992 35.9207V35.9897Z" fill="#BEBEBE"/>
<path d="M221.992 36.0621L219.836 36.3H219.201L221.992 35.9897V36.0621Z" fill="#BDBDBD"/>
<path d="M221.992 36.131L220.471 36.3H219.836L221.992 36.0621V36.131Z" fill="#BCBCBC"/>
<path d="M221.992 36.2L221.106 36.3H220.471L221.992 36.131V36.2Z" fill="#BBBBBB"/>
<path d="M221.992 36.2724L221.738 36.3H221.106L221.992 36.2V36.2724Z" fill="#BABABA"/>
<path d="M221.738 36.3L221.992 36.2724V36.3H221.738Z" fill="#B9B9B9"/>
</g>
<path d="M213.584 20.869C208.849 20.869 204.997 24.9483 204.997 29.9621C204.997 32.3552 205.873 34.5379 207.316 36.169C207.364 36.231 207.417 36.2896 207.465 36.3414C207.53 36.3276 207.602 36.3103 207.68 36.2965C207.752 36.2828 207.824 36.2655 207.895 36.2517C207.83 36.1896 207.758 36.1241 207.697 36.0483C206.248 34.4759 205.359 32.3241 205.359 29.9621C205.359 25.1586 209.045 21.2448 213.591 21.2448C218.136 21.2448 221.819 25.1586 221.819 29.9621C221.819 31.7 221.334 33.331 220.501 34.6896C220.422 34.8172 220.338 34.9448 220.25 35.069C220.328 35.0759 220.4 35.0759 220.471 35.0828C220.543 35.0896 220.608 35.0896 220.67 35.0965C220.742 34.9896 220.807 34.8862 220.869 34.7724C221.696 33.3759 222.174 31.7276 222.174 29.9621C222.174 24.9483 218.322 20.869 213.587 20.869H213.584Z" fill="black"/>
<path d="M211.23 35.1828C213.001 35.1828 214.437 33.6621 214.437 31.7862C214.437 29.9103 213.001 28.3896 211.23 28.3896C209.458 28.3896 208.022 29.9103 208.022 31.7862C208.022 33.6621 209.458 35.1828 211.23 35.1828Z" fill="black"/>
<path d="M209.768 32.2172C210.259 32.2172 210.657 31.7958 210.657 31.2759C210.657 30.7559 210.259 30.3345 209.768 30.3345C209.277 30.3345 208.879 30.7559 208.879 31.2759C208.879 31.7958 209.277 32.2172 209.768 32.2172Z" fill="white"/>
<path d="M220.865 34.7724C221.5 34.9172 222.112 35.1138 222.699 35.369C222.051 35.2414 221.364 35.1586 220.667 35.0966C220.602 35.0897 220.54 35.0897 220.468 35.0828C220.396 35.0759 220.325 35.0759 220.247 35.069C215.782 34.7655 210.761 35.6345 207.895 36.2552C207.824 36.269 207.752 36.2862 207.68 36.3C207.602 36.3138 207.531 36.331 207.465 36.3448C206.482 36.5655 205.811 36.7379 205.613 36.7897C205.785 36.7207 206.397 36.4793 207.316 36.169C207.374 36.1448 207.436 36.1241 207.501 36.1069C207.566 36.0828 207.628 36.0621 207.693 36.0448C210.595 35.1069 215.951 33.7483 220.494 34.6862C220.559 34.7 220.621 34.7103 220.686 34.7241C220.745 34.7379 220.807 34.7552 220.865 34.769V34.7724Z" fill="black"/>
<path d="M222.777 35.4C222.748 35.3931 222.728 35.3759 222.699 35.369C222.722 35.369 222.735 35.3759 222.757 35.3759L222.78 35.4H222.777Z" fill="black"/>
<mask id="mask1_2034_794" style="mask-type:luminance" maskUnits="userSpaceOnUse" x="183" y="21" width="18" height="16">
<path d="M183.401 29.9621C183.401 31.7138 183.88 33.3517 184.707 34.7276C184.778 34.8483 184.85 34.969 184.928 35.0828C185 35.0759 185.071 35.0759 185.15 35.069C189.614 34.7655 194.635 35.6345 197.501 36.2552C197.573 36.269 197.644 36.2862 197.716 36.3C197.774 36.2379 197.836 36.1793 197.895 36.1103C199.334 34.5172 200.22 32.3483 200.22 29.9621C200.22 25.0448 196.456 21.0586 191.812 21.0586C187.168 21.0586 183.404 25.0448 183.404 29.9621H183.401Z" fill="white"/>
</mask>
<g mask="url(#mask1_2034_794)">
<path d="M200.22 32.9655L183.401 31.7483V21.0586H200.22V32.9655Z" fill="white"/>
<path d="M200.22 33.0345L183.401 31.8207V31.7483L200.22 32.9655V33.0345Z" fill="white"/>
<path d="M200.22 33.1069L183.401 31.8896V31.8207L200.22 33.0345V33.1069Z" fill="#FDFDFD"/>
<path d="M200.22 33.1759L183.401 31.9586V31.8896L200.22 33.1069V33.1759Z" fill="#FCFCFC"/>
<path d="M200.22 33.2448L183.401 32.031V31.9586L200.22 33.1759V33.2448Z" fill="#FBFBFB"/>
<path d="M200.22 33.3172L183.401 32.1V32.031L200.22 33.2448V33.3172Z" fill="#FAFAFA"/>
<path d="M200.22 33.3862L183.401 32.169V32.1L200.22 33.3172V33.3862Z" fill="#F9F9F9"/>
<path d="M200.22 33.4552L183.401 32.2379V32.169L200.22 33.3862V33.4552Z" fill="#F8F8F8"/>
<path d="M200.22 33.5242L183.401 32.3104V32.2379L200.22 33.4552V33.5242Z" fill="#F7F7F7"/>
<path d="M200.22 33.5965L183.401 32.3793V32.3103L200.22 33.5241V33.5965Z" fill="#F6F6F6"/>
<path d="M200.22 33.6655L183.401 32.4483V32.3793L200.22 33.5965V33.6655Z" fill="#F5F5F5"/>
<path d="M200.22 33.7345L183.401 32.5207V32.4483L200.22 33.6655V33.7345Z" fill="#F4F4F4"/>
<path d="M200.22 33.8069L183.401 32.5897V32.5207L200.22 33.7345V33.8069Z" fill="#F3F3F3"/>
<path d="M200.22 33.8759L183.401 32.6586V32.5897L200.22 33.8069V33.8759Z" fill="#F2F2F2"/>
<path d="M200.22 33.9448L183.401 32.731V32.6586L200.22 33.8759V33.9448Z" fill="#F1F1F1"/>
<path d="M200.22 34.0173L183.401 32.8V32.731L200.22 33.9448V34.0173Z" fill="#F0F0F0"/>
<path d="M200.22 34.0862L183.401 32.869V32.8L200.22 34.0173V34.0862Z" fill="#EFEFEF"/>
<path d="M200.22 34.1552L183.401 32.9379V32.869L200.22 34.0862V34.1552Z" fill="#EEEEEE"/>
<path d="M200.22 34.2241L183.401 33.0103V32.9379L200.22 34.1552V34.2241Z" fill="#EDEDED"/>
<path d="M200.22 34.2966L183.401 33.0793V33.0103L200.22 34.2241V34.2966Z" fill="#ECECEC"/>
<path d="M200.22 34.3655L183.401 33.1483V33.0793L200.22 34.2966V34.3655Z" fill="#EBEBEB"/>
<path d="M200.22 34.4345L183.401 33.2207V33.1483L200.22 34.3655V34.4345Z" fill="#EAEAEA"/>
<path d="M200.22 34.5069L183.401 33.2897V33.2207L200.22 34.4345V34.5069Z" fill="#E9E9E9"/>
<path d="M200.22 34.5759L183.401 33.3586V33.2897L200.22 34.5069V34.5759Z" fill="#E8E8E8"/>
<path d="M200.22 34.6448L183.401 33.431V33.3586L200.22 34.5759V34.6448Z" fill="#E7E7E7"/>
<path d="M200.22 34.7172L183.401 33.5V33.431L200.22 34.6448V34.7172Z" fill="#E6E6E6"/>
<path d="M200.22 34.7862L183.401 33.569V33.5L200.22 34.7172V34.7862Z" fill="#E5E5E5"/>
<path d="M200.22 34.8552L183.401 33.6379V33.569L200.22 34.7862V34.8552Z" fill="#E4E4E4"/>
<path d="M200.22 34.9241L183.401 33.7104V33.6379L200.22 34.8552V34.9241Z" fill="#E3E3E3"/>
<path d="M200.22 34.9966L183.401 33.7793V33.7104L200.22 34.9241V34.9966Z" fill="#E2E2E2"/>
<path d="M200.22 35.0655L183.401 33.8483V33.7793L200.22 34.9966V35.0655Z" fill="#E1E1E1"/>
<path d="M200.22 35.1345L183.401 33.9207V33.8483L200.22 35.0655V35.1345Z" fill="#E0E0E0"/>
<path d="M200.22 35.2069L183.401 33.9896V33.9207L200.22 35.1345V35.2069Z" fill="#DFDFDF"/>
<path d="M200.22 35.2759L183.401 34.0586V33.9897L200.22 35.2069V35.2759Z" fill="#DEDEDE"/>
<path d="M200.22 35.3448L183.401 34.131V34.0586L200.22 35.2759V35.3448Z" fill="#DDDDDD"/>
<path d="M200.22 35.4172L183.401 34.2V34.131L200.22 35.3448V35.4172Z" fill="#DCDCDC"/>
<path d="M200.22 35.4862L183.401 34.269V34.2L200.22 35.4173V35.4862Z" fill="#DBDBDB"/>
<path d="M200.22 35.5552L183.401 34.3379V34.269L200.22 35.4862V35.5552Z" fill="#DADADA"/>
<path d="M200.22 35.6276L183.401 34.4103V34.3379L200.22 35.5552V35.6276Z" fill="#D9D9D9"/>
<path d="M200.22 35.6965L183.401 34.4793V34.4103L200.22 35.6276V35.6965Z" fill="#D8D8D8"/>
<path d="M200.22 35.7655L183.401 34.5483V34.4793L200.22 35.6966V35.7655Z" fill="#D7D7D7"/>
<path d="M200.22 35.8345L183.401 34.6207V34.5483L200.22 35.7655V35.8345Z" fill="#D6D6D6"/>
<path d="M200.22 35.9069L183.401 34.6897V34.6207L200.22 35.8345V35.9069Z" fill="#D5D5D5"/>
<path d="M200.22 35.9759L183.401 34.7586V34.6897L200.22 35.9069V35.9759Z" fill="#D4D4D4"/>
<path d="M200.22 36.0448L183.401 34.831V34.7586L200.22 35.9759V36.0448Z" fill="#D3D3D3"/>
<path d="M200.22 36.1173L183.401 34.9V34.8311L200.22 36.0448V36.1173Z" fill="#D2D2D2"/>
<path d="M200.22 36.1862L183.401 34.969V34.9L200.22 36.1172V36.1862Z" fill="#D1D1D1"/>
<path d="M200.22 36.2552L183.401 35.0379V34.969L200.22 36.1862V36.2552Z" fill="#D0D0D0"/>
<path d="M199.849 36.3L183.401 35.1103V35.0379L200.22 36.2552V36.3H199.849Z" fill="#CFCFCF"/>
<path d="M198.882 36.3L183.401 35.1793V35.1104L199.849 36.3H198.882Z" fill="#CECECE"/>
<path d="M197.914 36.3L183.401 35.2483V35.1793L198.882 36.3H197.914Z" fill="#CDCDCD"/>
<path d="M196.947 36.3L183.401 35.3207V35.2483L197.914 36.3H196.947Z" fill="#CCCCCC"/>
<path d="M195.977 36.3L183.401 35.3896V35.3207L196.947 36.3H195.977Z" fill="#CBCBCB"/>
<path d="M195.01 36.3L183.401 35.4586V35.3896L195.977 36.3H195.01Z" fill="#CACACA"/>
<path d="M194.043 36.3L183.401 35.531V35.4586L195.01 36.3H194.043Z" fill="#C9C9C9"/>
<path d="M193.075 36.3L183.401 35.6V35.531L194.043 36.3H193.075Z" fill="#C8C8C8"/>
<path d="M192.108 36.3L183.401 35.669V35.6L193.075 36.3H192.108Z" fill="#C7C7C7"/>
<path d="M191.138 36.3L183.401 35.7379V35.669L192.108 36.3H191.138Z" fill="#C6C6C6"/>
<path d="M190.171 36.3L183.401 35.8104V35.7379L191.138 36.3H190.171Z" fill="#C5C5C5"/>
<path d="M189.204 36.3L183.401 35.8793V35.8104L190.171 36.3H189.204Z" fill="#C4C4C4"/>
<path d="M188.237 36.3L183.401 35.9483V35.8793L189.204 36.3H188.237Z" fill="#C3C3C3"/>
<path d="M187.266 36.3L183.401 36.0207V35.9483L188.237 36.3H187.266Z" fill="#C2C2C2"/>
<path d="M186.299 36.3L183.401 36.0897V36.0207L187.266 36.3H186.299Z" fill="#C1C1C1"/>
<path d="M185.332 36.3L183.401 36.1586V36.0897L186.299 36.3H185.332Z" fill="#C0C0C0"/>
<path d="M184.365 36.3L183.401 36.231V36.1586L185.332 36.3H184.365Z" fill="#BFBFBF"/>
<path d="M183.401 36.231L184.365 36.3H183.401V36.231Z" fill="#BEBEBE"/>
</g>
<path d="M191.812 20.869C196.547 20.869 200.399 24.9483 200.399 29.9621C200.399 32.3552 199.523 34.5379 198.08 36.169C198.032 36.231 197.979 36.2896 197.931 36.3414C197.866 36.3276 197.794 36.3103 197.716 36.2965C197.644 36.2828 197.572 36.2655 197.501 36.2517C197.566 36.1896 197.638 36.1241 197.699 36.0483C199.148 34.4759 200.037 32.3241 200.037 29.9621C200.037 25.1586 196.351 21.2448 191.805 21.2448C187.26 21.2448 183.577 25.1586 183.577 29.9621C183.577 31.7 184.062 33.331 184.895 34.6896C184.974 34.8172 185.058 34.9448 185.146 35.069C185.068 35.0759 184.996 35.0759 184.925 35.0828C184.853 35.0896 184.788 35.0896 184.726 35.0965C184.654 34.9896 184.589 34.8862 184.527 34.7724C183.7 33.3759 183.222 31.7276 183.222 29.9621C183.222 24.9483 187.074 20.869 191.809 20.869H191.812Z" fill="black"/>
<path d="M194.166 35.1828C195.938 35.1828 197.374 33.6621 197.374 31.7862C197.374 29.9103 195.938 28.3896 194.166 28.3896C192.395 28.3896 190.959 29.9103 190.959 31.7862C190.959 33.6621 192.395 35.1828 194.166 35.1828Z" fill="black"/>
<path d="M195.628 32.2172C196.119 32.2172 196.517 31.7958 196.517 31.2759C196.517 30.7559 196.119 30.3345 195.628 30.3345C195.138 30.3345 194.74 30.7559 194.74 31.2759C194.74 31.7958 195.138 32.2172 195.628 32.2172Z" fill="white"/>
<path d="M184.527 34.7724C183.892 34.9172 183.28 35.1138 182.694 35.369C183.342 35.2414 184.029 35.1586 184.726 35.0966C184.791 35.0897 184.853 35.0897 184.925 35.0828C184.996 35.0759 185.068 35.0759 185.146 35.069C189.611 34.7655 194.632 35.6345 197.497 36.2552C197.569 36.269 197.641 36.2862 197.712 36.3C197.791 36.3138 197.862 36.331 197.927 36.3448C198.911 36.5655 199.582 36.7379 199.78 36.7897C199.608 36.7207 198.995 36.4793 198.077 36.169C198.018 36.1448 197.957 36.1241 197.891 36.1069C197.826 36.0828 197.764 36.0621 197.699 36.0448C194.798 35.1069 189.441 33.7483 184.899 34.6862C184.834 34.7 184.772 34.7103 184.707 34.7241C184.648 34.7379 184.586 34.7552 184.527 34.769V34.7724Z" fill="black"/>
<path d="M182.616 35.4C182.645 35.3931 182.665 35.3759 182.694 35.369C182.671 35.369 182.658 35.3759 182.636 35.3759L182.613 35.4H182.616Z" fill="black"/>
<path d="M216.026 9.84827C213.548 8.31034 210.562 6.70689 207.703 7.9862L207.622 7.90689C208.96 4.99999 212.454 6.84482 214.265 8.17241C214.913 8.65861 215.535 9.17241 216.098 9.75516L216.029 9.84482L216.026 9.84827Z" fill="black"/>
<path d="M192.421 9.84827C194.899 8.31034 197.885 6.70689 200.744 7.9862L200.826 7.90689C199.487 4.99999 195.993 6.84482 194.183 8.17241C193.535 8.65861 192.913 9.17241 192.349 9.75516L192.418 9.84482L192.421 9.84827Z" fill="black"/>
<path d="M109.999 66.2184C123.129 57.4291 127.626 40.0092 120.045 27.3099C112.464 14.6106 95.6743 11.441 82.5448 20.2303C69.4153 29.0197 64.9176 46.4396 72.4989 59.1389C80.0802 71.8381 96.8696 75.0077 109.999 66.2184Z" fill="#286FFF"/>
<path d="M106.69 61.9989C119.973 53.1068 124.89 36.0968 117.672 24.006C110.454 11.9152 93.8346 9.32221 80.5516 18.2143C67.2685 27.1064 62.3519 44.1164 69.5699 56.2072C76.788 68.298 93.4074 70.891 106.69 61.9989Z" fill="#00B8FF"/>
<path d="M73.1735 71.0827C72.0468 71.0827 71.0959 70.9172 70.4381 70.5172C69.8357 70.1517 69.458 69.5965 69.3505 68.9172C69.2268 68.1345 69.5329 67.3 70.1516 66.7414L76.2312 61.2345C73.0367 58.5586 59.1972 45.6 66.0421 27.0896C68.683 19.9517 74.0331 14.4862 80.7249 12.0965C87.9508 9.51722 99.3448 8.51032 112.598 18.3689C112.751 18.4758 116.724 21.3069 120.189 26.5827C125.164 34.1552 126.005 43.7069 122.432 52.1276C118.766 60.7827 111.23 66.6241 102.282 67.7586C95.2059 68.6552 89.2957 67.4552 88.1625 67.2C86.4626 67.8759 78.1264 71.0827 73.1735 71.0827ZM90.748 11.6689C87.0292 11.6689 83.7794 12.3965 81.119 13.3448C74.7789 15.6069 69.7055 20.7931 67.2013 27.5689C59.8908 47.3345 77.4035 60.531 77.5793 60.6621L78.2404 61.1483L70.9624 67.7414C70.6759 68.0034 70.5293 68.369 70.5782 68.6965C70.6238 68.9931 70.7735 69.2 71.0568 69.3724C73.7368 71 84.1181 67.4138 87.8954 65.8965L88.0713 65.8241L88.2569 65.869C88.3188 65.8862 94.6491 67.3965 102.135 66.4483C110.644 65.3689 117.808 59.8138 121.296 51.5862C124.686 43.5896 123.888 34.5241 119.163 27.3345C115.838 22.2758 111.931 19.4862 111.891 19.4586C103.966 13.562 96.7495 11.6689 90.748 11.6689Z" fill="black"/>
<path d="M89.4095 39.1276C93.3696 39.1276 96.58 35.6493 96.58 31.3586C96.58 27.0679 93.3696 23.5897 89.4095 23.5897C85.4494 23.5897 82.239 27.0679 82.239 31.3586C82.239 35.6493 85.4494 39.1276 89.4095 39.1276Z" fill="white"/>
<path d="M89.4096 39.3724C85.3261 39.3724 82.0046 35.7759 82.0046 31.3586C82.0046 26.9414 85.3261 23.3448 89.4096 23.3448C93.493 23.3448 96.8145 26.9414 96.8145 31.3586C96.8145 35.7759 93.493 39.3724 89.4096 39.3724ZM89.4096 23.8379C85.5834 23.8379 82.4703 27.2103 82.4703 31.3586C82.4703 35.5069 85.5834 38.8793 89.4096 38.8793C93.2358 38.8793 96.3489 35.5069 96.3489 31.3586C96.3489 27.2103 93.2358 23.8379 89.4096 23.8379Z" fill="black"/>
<path d="M89.2109 34.8034C90.8601 34.8034 92.197 33.2611 92.197 31.3586C92.197 29.4561 90.8601 27.9138 89.2109 27.9138C87.5618 27.9138 86.2249 29.4561 86.2249 31.3586C86.2249 33.2611 87.5618 34.8034 89.2109 34.8034Z" fill="black"/>
<path d="M89.3709 29.5729C89.9572 29.5234 90.4098 29.1832 90.3819 28.813C90.354 28.4428 89.8562 28.1829 89.27 28.2324C88.6837 28.2819 88.2311 28.6221 88.259 28.9923C88.2869 29.3625 88.7847 29.6225 89.3709 29.5729Z" fill="white"/>
<path d="M87.6559 29.5392C87.8503 29.5128 87.9944 29.3797 87.9777 29.2418C87.9611 29.1039 87.7899 29.0135 87.5955 29.0399C87.401 29.0662 87.2569 29.1994 87.2736 29.3373C87.2903 29.4752 87.4614 29.5656 87.6559 29.5392Z" fill="white"/>
<path d="M105.043 39.1276C109.003 39.1276 112.214 35.6493 112.214 31.3586C112.214 27.0679 109.003 23.5897 105.043 23.5897C101.083 23.5897 97.8728 27.0679 97.8728 31.3586C97.8728 35.6493 101.083 39.1276 105.043 39.1276Z" fill="white"/>
<path d="M105.043 39.3724C100.96 39.3724 97.6384 35.7759 97.6384 31.3586C97.6384 26.9414 100.96 23.3448 105.043 23.3448C109.127 23.3448 112.448 26.9414 112.448 31.3586C112.448 35.7759 109.127 39.3724 105.043 39.3724ZM105.043 23.8379C101.217 23.8379 98.1041 27.2103 98.1041 31.3586C98.1041 35.5069 101.217 38.8793 105.043 38.8793C108.87 38.8793 111.983 35.5069 111.983 31.3586C111.983 27.2103 108.87 23.8379 105.043 23.8379Z" fill="black"/>
<path d="M105.219 34.8034C106.868 34.8034 108.205 33.2611 108.205 31.3586C108.205 29.4561 106.868 27.9138 105.219 27.9138C103.57 27.9138 102.233 29.4561 102.233 31.3586C102.233 33.2611 103.57 34.8034 105.219 34.8034Z" fill="black"/>
<path d="M106.076 28.9984C106.104 28.6282 105.651 28.288 105.065 28.2385C104.479 28.189 103.981 28.4489 103.953 28.8191C103.925 29.1893 104.378 29.5295 104.964 29.5791C105.551 29.6286 106.048 29.3686 106.076 28.9984Z" fill="white"/>
<path d="M107.055 29.337C107.072 29.1991 106.928 29.0659 106.733 29.0395C106.539 29.0132 106.368 29.1036 106.351 29.2415C106.334 29.3794 106.478 29.5125 106.673 29.5389C106.867 29.5653 107.038 29.4749 107.055 29.337Z" fill="white"/>
<path d="M83.812 22.4069C85.5346 19.9966 89.3706 18.9483 91.4254 21.4586C88.9115 19.8862 86.1403 20.8172 83.812 22.4069Z" fill="black"/>
<path d="M111.579 22.7862C109.251 21.1966 106.479 20.2621 103.966 21.8379C106.02 19.331 109.856 20.3793 111.579 22.7862Z" fill="black"/>
<path d="M101.224 43.5103C103.822 43.5965 106.939 43.6483 108.414 43.4655C109.29 43.3552 110.045 44.2103 109.833 45.1172C109.733 45.5552 109.505 46.0827 109.085 46.7207C108.694 47.3172 108.293 47.9069 107.925 48.5207L105.161 53.131C105.161 53.131 104.027 55.7827 98.7814 55.7827C95.0659 55.7827 91.5751 53.9621 89.8525 52.9C88.7421 52.2138 87.7782 51.2793 87.1041 50.1172C86.1956 48.5517 85.5248 46.2241 87.0651 43.6276C88.5272 41.1655 92.2687 41.2276 94.711 42.1965C96.795 43.0241 98.9996 43.4379 101.224 43.5138V43.5103Z" fill="#430B0A"/>
<path d="M105.317 52.2724C105.249 52.8103 105.034 53.3551 104.601 53.8862C104.578 53.9103 104.561 53.9413 104.526 53.9655C104.408 54.1207 104.265 54.2655 104.102 54.4138C102.109 56.2069 97.7198 55.9276 94.4602 55.3931C91.1453 54.3517 88.6932 52.5172 88.5532 52.4103C88.5239 52.3862 87.2832 51.2965 86.4854 49.5758C85.9319 48.362 85.5997 46.831 86.0784 45.131L86.9609 43.6655L86.9674 43.6551L86.9348 43.5241C86.9348 43.5241 86.9869 43.5551 87.0748 43.6069C87.0748 43.6138 87.0814 43.6138 87.0814 43.6138C87.1497 43.6551 87.2344 43.7034 87.3419 43.7689C88.0257 44.1689 89.5334 44.9965 91.5491 45.7896C91.5654 45.7965 91.5816 45.8069 91.6012 45.8069C91.6077 45.8138 91.6174 45.8138 91.624 45.8138C92.5911 46.1965 93.6755 46.5689 94.8445 46.8793C95.4306 47.0345 96.0363 47.1793 96.6615 47.2965C97.5668 47.4689 98.5014 47.6 99.462 47.6689C100.27 47.7276 101.09 47.7345 101.914 47.6862H101.96C102.275 47.662 102.604 47.6379 102.92 47.6034C102.92 47.6034 102.93 47.6138 102.959 47.6345C103.282 47.9172 105.607 50.0207 105.32 52.2758L105.317 52.2724Z" fill="#C83A41"/>
<g opacity="0.7">
<path d="M95.5511 46.3655C95.3362 46.5345 95.1148 46.6931 94.8901 46.8448C94.8738 46.8551 94.8575 46.8689 94.838 46.8793C94.7924 46.9103 94.7533 46.9345 94.7142 46.9586C94.6459 47.0069 94.584 47.0482 94.5156 47.0896C92.0929 48.5965 89.211 49.2379 87.1009 49.5C86.9999 49.5172 86.899 49.531 86.8013 49.5414C86.6938 49.5517 86.5864 49.5655 86.4854 49.5758C85.9319 48.362 85.5997 46.831 86.0784 45.131C86.2184 44.6172 86.4399 44.0827 86.7492 43.5448C86.7655 43.5138 86.7818 43.4862 86.8013 43.4483C86.8111 43.4379 86.8241 43.4241 86.8306 43.4138C86.8599 43.3655 86.886 43.3241 86.9153 43.2758C86.9706 43.1862 87.039 43.1034 87.1009 43.0172C87.1693 42.9345 87.2377 42.8551 87.3093 42.7793C87.3777 42.7 87.4461 42.6345 87.5177 42.5689C87.648 42.5931 87.7847 42.6103 87.9182 42.6345C88.0583 42.6586 88.2048 42.6827 88.3481 42.7138C93.4833 43.5931 97.5212 44.8207 95.5479 46.362L95.5511 46.3655Z" fill="#A12E35"/>
</g>
<path d="M107.815 43.662C107.815 43.662 107.785 43.7345 107.723 43.8552C107.362 44.5655 105.802 47.062 101.911 47.6896C100.074 47.9931 97.7199 47.8758 94.7143 46.9586C93.7439 46.6655 92.7084 46.2896 91.5979 45.8103C91.5817 45.8034 91.5654 45.8 91.5458 45.7931C90.2531 45.2379 88.8691 44.5552 87.3777 43.7172C87.3158 43.6862 87.2475 43.6517 87.1758 43.6103C87.1465 43.6 87.1237 43.5862 87.1009 43.5758H87.0944C87.0032 43.5172 86.9121 43.4689 86.8274 43.4207C86.8567 43.3724 86.8827 43.331 86.9121 43.2827C86.9674 43.1931 87.0358 43.1103 87.0977 43.0241C87.166 42.9414 87.2344 42.862 87.3061 42.7862C87.3744 42.7069 87.4428 42.6414 87.5145 42.5758C89.2697 40.9414 92.4055 40.9379 94.812 41.8931C96.7821 42.6827 98.941 43.1138 101.227 43.1896C102.78 43.2379 104.135 43.2689 105.265 43.2689C106.043 43.2689 106.717 43.2586 107.264 43.2276C107.333 43.2276 107.395 43.2207 107.463 43.2207L107.707 43.531L107.808 43.662H107.815Z" fill="white"/>
<path d="M109.779 43.7034C109.417 43.2724 108.857 43.0862 108.316 43.1517C108.124 43.169 107.909 43.1862 107.655 43.2069C107.6 43.2138 107.538 43.2138 107.47 43.2172C107.401 43.2172 107.34 43.2241 107.271 43.2241C106.724 43.2552 106.05 43.2655 105.272 43.2655C104.142 43.2655 102.787 43.2345 101.234 43.1862C98.9479 43.1069 96.7889 42.6793 94.8188 41.8896C92.4124 40.931 89.2765 40.9379 87.5214 42.5724C87.4465 42.6379 87.3813 42.7034 87.313 42.7827C87.2381 42.8621 87.1729 42.9379 87.1045 43.0207C87.0427 43.1034 86.9743 43.1896 86.9189 43.2793C86.8896 43.3276 86.8636 43.369 86.8343 43.4172C86.8278 43.4276 86.818 43.4414 86.805 43.4517C86.7887 43.4862 86.7724 43.5172 86.7529 43.5483C86.4435 44.0862 86.2221 44.6172 86.0821 45.1345C85.6034 46.8345 85.9355 48.3655 86.4891 49.5793C87.2869 51.3034 88.5276 52.3896 88.5569 52.4138C88.6969 52.5207 91.1489 54.3586 94.4639 55.3965C95.7925 55.8138 97.2644 56.1069 98.7851 56.1069C104.161 56.1069 105.389 53.3793 105.422 53.3034L108.183 48.6931C108.489 48.1965 108.811 47.7069 109.131 47.2207L109.332 46.9103C109.739 46.2827 110.01 45.7034 110.13 45.1862C110.254 44.6586 110.124 44.1172 109.779 43.7034ZM109.525 45.0965C109.411 45.5276 109.179 46.0069 108.831 46.531L108.632 46.8414C108.3 47.3379 107.971 47.8345 107.665 48.3483L105.314 52.2724L104.884 52.9896C104.868 53.0207 103.725 55.4586 98.7786 55.4586C93.8322 55.4586 88.9574 51.9172 88.9183 51.9C88.8337 51.8276 87.8047 50.9207 87.1013 49.4965C86.3882 48.0448 86.0104 46.0586 87.2934 43.8552C87.2999 43.8379 87.3097 43.8207 87.3227 43.7965C87.3292 43.7862 87.3325 43.7793 87.339 43.7655C87.3553 43.7483 87.3683 43.731 87.3781 43.7103C87.4009 43.669 87.4334 43.6207 87.4627 43.5862C87.707 43.2345 88.0066 42.9414 88.3485 42.7138C89.1854 42.1345 90.2795 41.8827 91.4225 41.8827C92.4971 41.8827 93.614 42.1034 94.6039 42.4931C96.6359 43.3 98.8632 43.7552 101.211 43.8345C104.051 43.931 106.177 43.9345 107.532 43.8655H107.538C107.607 43.8586 107.662 43.8586 107.724 43.8552C107.786 43.8483 107.841 43.8483 107.906 43.8448H107.913C108.115 43.8345 108.29 43.8138 108.45 43.7896C108.805 43.7414 109.163 43.9103 109.388 44.2207C109.567 44.4655 109.609 44.8 109.528 45.1L109.525 45.0965Z" fill="black"/>
<path d="M107.903 43.5172L107.896 43.5103L107.652 43.2069C107.596 43.2138 107.535 43.2138 107.466 43.2172C107.398 43.2172 107.336 43.2241 107.268 43.2241L107.522 43.5345L107.528 43.5414L107.629 43.6793C107.606 43.7276 107.574 43.7862 107.535 43.8655C107.167 44.5241 106.043 46.1931 103.614 47.0827C102.321 47.562 100.914 47.7276 99.4556 47.6689C98.534 47.6276 97.5929 47.4965 96.6551 47.2965C96.0624 47.1724 95.4763 47.0138 94.8869 46.8414C92.2427 46.0517 89.6572 44.8138 87.4657 43.5862H87.4591C87.3843 43.5448 87.3191 43.5034 87.2442 43.4621C87.2214 43.4517 87.2052 43.4448 87.1889 43.431H87.1824C87.0879 43.3758 86.9968 43.331 86.9121 43.2758C86.8828 43.3241 86.8567 43.3655 86.8274 43.4138C86.8209 43.4241 86.8111 43.4379 86.8046 43.4483C86.7883 43.4827 86.7655 43.5138 86.7493 43.5448C86.8177 43.5862 86.886 43.6276 86.9577 43.6655C86.9805 43.6758 86.9968 43.6896 87.0196 43.7C87.0423 43.7241 87.0716 43.7345 87.1042 43.7552C87.1661 43.7896 87.228 43.8276 87.2898 43.8552C89.8884 45.3207 92.2981 46.3965 94.5124 47.0862C96.502 47.7034 98.3191 48.0138 99.9798 48.0138C101.041 48.0138 102.031 47.8896 102.95 47.631C103.217 47.5586 103.471 47.4827 103.725 47.3862C106.538 46.3517 107.649 44.3483 107.903 43.8379C107.932 43.7724 107.942 43.7379 107.948 43.7241L107.987 43.6276L107.896 43.5138L107.903 43.5172Z" fill="black"/>
<path d="M102.074 59.0621C101.64 59.0621 101.165 59.0276 100.634 58.9724L100.693 58.3138C102.943 58.5379 103.829 58.3828 104.995 56.9828L105.46 57.4207C104.392 58.7034 103.441 59.0586 102.074 59.0586V59.0621Z" fill="black"/>
</g>
<defs>
<clipPath id="clip0_2034_794">
<rect width="282" height="80" fill="white"/>
</clipPath>
</defs>
</svg>
