<svg width="49" height="39" viewBox="0 0 49 39" fill="none" xmlns="http://www.w3.org/2000/svg">
<g filter="url(#filter0_d_8_252)">
<path d="M35.4086 18.5407C36.0173 18.5407 36.5325 19.0893 36.2674 19.6373C36.2452 19.6831 36.2222 19.7284 36.1983 19.7732C35.9709 20.3904 35.616 20.9255 35.263 21.4646C34.9679 22.0477 34.4475 22.4425 34.0646 22.9415C33.6638 23.4265 33.1174 23.7491 32.6847 24.1519C32.26 24.5728 31.7036 24.7832 31.261 25.0798C30.7983 25.3463 30.3955 25.6409 29.9648 25.7812L28.89 26.2261C28.3464 26.4532 28.05 27.0431 28.1923 27.6148L28.616 29.316C28.7797 29.9737 29.4437 30.3757 30.1024 30.2161C30.4833 30.1199 30.9479 30.0076 31.4763 29.8734C32.0167 29.7732 32.593 29.4986 33.2351 29.2481C33.8692 28.9636 34.603 28.7712 35.285 28.3143C35.9709 27.8774 36.7626 27.5127 37.4605 26.9275C38.1365 26.3243 38.9521 25.8012 39.5543 25.0337C40.2123 24.3163 40.8624 23.5628 41.3669 22.705C41.9511 21.8874 42.348 20.9896 42.7667 20.1018C43.1456 19.2141 43.4507 18.3062 43.6999 17.4245C44.1725 15.6569 44.3839 13.9776 44.4656 12.5407C44.5334 11.1018 44.4936 9.90544 44.4098 9.03971C44.3799 8.63089 44.3241 8.2341 44.2842 7.95955L44.2384 7.65003C44.2362 7.6354 44.222 7.62574 44.2076 7.62908C44.1938 7.63228 44.1801 7.62353 44.1771 7.60969C43.8196 5.95447 43.0054 4.4337 41.8276 3.22172C40.6438 2.00358 39.141 1.14714 37.4931 0.751485C35.8452 0.355827 34.1196 0.437112 32.5157 0.985937C30.9119 1.53476 29.4954 2.5287 28.4302 3.85277C27.3649 5.17685 26.6945 6.77695 26.4963 8.46798C26.2981 10.159 26.5804 11.8719 27.3104 13.4084C28.0405 14.9449 29.1884 16.2424 30.6215 17.1506C32.0547 18.0589 33.7143 18.5408 35.4086 18.5407ZM13.4739 18.5407C14.0826 18.5407 14.5978 19.0893 14.3327 19.6373C14.3105 19.6831 14.2875 19.7284 14.2635 19.7732C14.0362 20.3904 13.6813 20.9255 13.3283 21.4646C13.0332 22.0477 12.5128 22.4425 12.1299 22.9415C11.7291 23.4265 11.1827 23.7491 10.75 24.1519C10.3253 24.5728 9.76892 24.7832 9.32624 25.0798C8.86361 25.3463 8.46082 25.6409 8.0301 25.7812L6.9553 26.2261C6.41166 26.4532 6.11526 27.0431 6.25762 27.6148L6.68124 29.316C6.84501 29.9737 7.50902 30.3757 8.16769 30.2161C8.54856 30.1199 9.01317 30.0076 9.5416 29.8734C10.082 29.7732 10.6583 29.4986 11.3004 29.2481C11.9325 28.9616 12.6683 28.7712 13.3503 28.3123C14.0362 27.8754 14.8279 27.5107 15.5258 26.9255C16.2018 26.3223 17.0173 25.7992 17.6196 25.0337C18.2776 24.3163 18.9277 23.5628 19.4322 22.705C20.0164 21.8874 20.4132 20.9896 20.832 20.1018C21.2109 19.2141 21.516 18.3062 21.7652 17.4245C22.2378 15.6569 22.4492 13.9776 22.5309 12.5407C22.5987 11.1018 22.5589 9.90544 22.4751 9.03971C22.4452 8.63089 22.3894 8.2341 22.3495 7.95955L22.3036 7.65003C22.3015 7.6354 22.2873 7.62574 22.2729 7.62908C22.2591 7.63228 22.2454 7.62353 22.2424 7.60969C21.8849 5.95447 21.0707 4.4337 19.8929 3.22172C18.7091 2.00358 17.2063 1.14714 15.5584 0.751485C13.9105 0.355827 12.1848 0.437112 10.581 0.985937C8.97715 1.53476 7.56069 2.5287 6.49545 3.85277C5.43021 5.17685 4.75974 6.77695 4.56158 8.46798C4.36343 10.159 4.6457 11.8719 5.37573 13.4084C6.10576 14.9449 7.25373 16.2424 8.68684 17.1506C10.1199 18.0589 11.7796 18.5408 13.4739 18.5407Z" fill="url(#paint0_linear_8_252)"/>
</g>
<defs>
<filter id="filter0_d_8_252" x="0.5" y="0.504639" width="48" height="37.7463" filterUnits="userSpaceOnUse" color-interpolation-filters="sRGB">
<feFlood flood-opacity="0" result="BackgroundImageFix"/>
<feColorMatrix in="SourceAlpha" type="matrix" values="0 0 0 0 0 0 0 0 0 0 0 0 0 0 0 0 0 0 127 0" result="hardAlpha"/>
<feOffset dy="4"/>
<feGaussianBlur stdDeviation="2"/>
<feComposite in2="hardAlpha" operator="out"/>
<feColorMatrix type="matrix" values="0 0 0 0 0 0 0 0 0 0 0 0 0 0 0 0 0 0 0.25 0"/>
<feBlend mode="normal" in2="BackgroundImageFix" result="effect1_dropShadow_8_252"/>
<feBlend mode="normal" in="SourceGraphic" in2="effect1_dropShadow_8_252" result="shape"/>
</filter>
<linearGradient id="paint0_linear_8_252" x1="44.5" y1="15.5046" x2="4.5" y2="15.5046" gradientUnits="userSpaceOnUse">
<stop stop-color="#00C4CC"/>
<stop offset="1" stop-color="#8B3DFF"/>
</linearGradient>
</defs>
</svg>
