<svg width="23" height="24" viewBox="0 0 23 24" fill="none" xmlns="http://www.w3.org/2000/svg">
<g clip-path="url(#clip0_830_6484)">
<path d="M23 11.9695C23 5.61825 17.8512 0.469482 11.5 0.469482C5.14877 0.469482 0 5.61825 0 11.9695C0 17.7094 4.20541 22.4671 9.70312 23.3298V15.2937H6.7832V11.9695H9.70312V9.43589C9.70312 6.5537 11.42 4.96167 14.0469 4.96167C15.3051 4.96167 16.6211 5.18628 16.6211 5.18628V8.01636H15.171C13.7424 8.01636 13.2969 8.90285 13.2969 9.81233V11.9695H16.4863L15.9765 15.2937H13.2969V23.3298C18.7946 22.4671 23 17.7095 23 11.9695Z" fill="#1877F2"/>
<path d="M15.9765 15.2937L16.4863 11.9695H13.2969V9.81233C13.2969 8.90276 13.7424 8.01636 15.171 8.01636H16.6211V5.18628C16.6211 5.18628 15.3051 4.96167 14.0468 4.96167C11.42 4.96167 9.70312 6.5537 9.70312 9.43589V11.9695H6.7832V15.2937H9.70312V23.3298C10.2975 23.4229 10.8983 23.4696 11.5 23.4695C12.1017 23.4697 12.7025 23.423 13.2969 23.3298V15.2937H15.9765Z" fill="white"/>
</g>
<defs>
<clipPath id="clip0_830_6484">
<rect width="23" height="23" fill="white" transform="translate(0 0.469482)"/>
</clipPath>
</defs>
</svg>
