<svg width="25" height="26" viewBox="0 0 25 26" fill="none" xmlns="http://www.w3.org/2000/svg">
<g filter="url(#filter0_ii_81_39)">
<path d="M1.43602 0.537996C1.14502 0.845996 0.973022 1.324 0.973022 1.943V24.059C0.973022 24.679 1.14502 25.156 1.43602 25.464L1.51002 25.536L13.899 13.147V13.001V12.855L1.51002 0.464996L1.43602 0.537996Z" fill="url(#paint0_linear_81_39)"/>
<path d="M18.028 17.278L13.899 13.147V13.001V12.855L18.029 8.725L18.122 8.778L23.015 11.558C24.412 12.352 24.412 13.651 23.015 14.446L18.122 17.226L18.028 17.278Z" fill="url(#paint1_linear_81_39)"/>
<g filter="url(#filter1_i_81_39)">
<path d="M18.122 17.225L13.898 13.001L1.43604 25.464C1.89604 25.952 2.65703 26.012 3.51403 25.526L18.122 17.225Z" fill="url(#paint2_linear_81_39)"/>
</g>
<path d="M18.122 8.777L3.51403 0.476998C2.65703 -0.0100022 1.89604 0.050998 1.43604 0.538998L13.899 13.002L18.122 8.777Z" fill="url(#paint3_linear_81_39)"/>
</g>
<defs>
<filter id="filter0_ii_81_39" x="0.973022" y="0.140923" width="23.0897" height="25.7208" filterUnits="userSpaceOnUse" color-interpolation-filters="sRGB">
<feFlood flood-opacity="0" result="BackgroundImageFix"/>
<feBlend mode="normal" in="SourceGraphic" in2="BackgroundImageFix" result="shape"/>
<feColorMatrix in="SourceAlpha" type="matrix" values="0 0 0 0 0 0 0 0 0 0 0 0 0 0 0 0 0 0 127 0" result="hardAlpha"/>
<feOffset dy="-0.15"/>
<feComposite in2="hardAlpha" operator="arithmetic" k2="-1" k3="1"/>
<feColorMatrix type="matrix" values="0 0 0 0 0 0 0 0 0 0 0 0 0 0 0 0 0 0 0.12 0"/>
<feBlend mode="normal" in2="shape" result="effect1_innerShadow_81_39"/>
<feColorMatrix in="SourceAlpha" type="matrix" values="0 0 0 0 0 0 0 0 0 0 0 0 0 0 0 0 0 0 127 0" result="hardAlpha"/>
<feOffset dy="0.15"/>
<feComposite in2="hardAlpha" operator="arithmetic" k2="-1" k3="1"/>
<feColorMatrix type="matrix" values="0 0 0 0 1 0 0 0 0 1 0 0 0 0 1 0 0 0 0.25 0"/>
<feBlend mode="normal" in2="effect1_innerShadow_81_39" result="effect2_innerShadow_81_39"/>
</filter>
<filter id="filter1_i_81_39" x="1.43604" y="13.001" width="16.686" height="12.8607" filterUnits="userSpaceOnUse" color-interpolation-filters="sRGB">
<feFlood flood-opacity="0" result="BackgroundImageFix"/>
<feBlend mode="normal" in="SourceGraphic" in2="BackgroundImageFix" result="shape"/>
<feColorMatrix in="SourceAlpha" type="matrix" values="0 0 0 0 0 0 0 0 0 0 0 0 0 0 0 0 0 0 127 0" result="hardAlpha"/>
<feOffset dy="-0.15"/>
<feComposite in2="hardAlpha" operator="arithmetic" k2="-1" k3="1"/>
<feColorMatrix type="matrix" values="0 0 0 0 0 0 0 0 0 0 0 0 0 0 0 0 0 0 0.08 0"/>
<feBlend mode="normal" in2="shape" result="effect1_innerShadow_81_39"/>
</filter>
<linearGradient id="paint0_linear_81_39" x1="12.8008" y1="1.709" x2="-3.98118" y2="18.491" gradientUnits="userSpaceOnUse">
<stop stop-color="#00A0FF"/>
<stop offset="0.0066" stop-color="#00A1FF"/>
<stop offset="0.2601" stop-color="#00BEFF"/>
<stop offset="0.5122" stop-color="#00D2FF"/>
<stop offset="0.7604" stop-color="#00DFFF"/>
<stop offset="1" stop-color="#00E3FF"/>
</linearGradient>
<linearGradient id="paint1_linear_81_39" x1="24.8335" y1="13.001" x2="0.637649" y2="13.001" gradientUnits="userSpaceOnUse">
<stop stop-color="#FFE000"/>
<stop offset="0.4087" stop-color="#FFBD00"/>
<stop offset="0.7754" stop-color="#FFA500"/>
<stop offset="1" stop-color="#FF9C00"/>
</linearGradient>
<linearGradient id="paint2_linear_81_39" x1="15.8281" y1="15.2949" x2="-6.93036" y2="38.0534" gradientUnits="userSpaceOnUse">
<stop stop-color="#FF3A44"/>
<stop offset="1" stop-color="#C31162"/>
</linearGradient>
<linearGradient id="paint3_linear_81_39" x1="-1.70257" y1="-6.8232" x2="8.45974" y2="3.3391" gradientUnits="userSpaceOnUse">
<stop stop-color="#32A071"/>
<stop offset="0.0685" stop-color="#2DA771"/>
<stop offset="0.4762" stop-color="#15CF74"/>
<stop offset="0.8009" stop-color="#06E775"/>
<stop offset="1" stop-color="#00F076"/>
</linearGradient>
</defs>
</svg>
