<svg width="114" height="97" viewBox="0 0 114 97" fill="none" xmlns="http://www.w3.org/2000/svg">
<path d="M52.8721 74.4177C52.7518 74.911 52.6314 75.4044 52.3908 75.7743C52.1502 76.1443 51.7892 76.6377 51.3079 76.761C51.1876 76.761 51.0673 76.761 50.9469 76.761C50.8266 76.6377 50.8266 76.5143 50.8266 76.391C50.7063 76.2677 50.4656 76.2677 50.225 76.391C49.864 76.5143 49.3827 76.6377 49.0218 76.6377C48.7811 76.6377 48.5405 76.6377 48.2998 76.6377C48.0592 76.5143 47.9389 76.391 47.9389 76.1443C47.6982 76.1443 47.5779 76.021 47.4576 75.8977C47.3373 75.7743 47.3373 75.5277 47.4576 75.4044C47.2169 75.281 47.0966 74.911 47.0966 74.541C47.2169 74.171 47.3373 73.9244 47.6982 73.801C47.9389 73.6777 48.2998 73.5544 48.5405 73.5544C49.7437 73.3077 50.9469 73.431 52.0298 73.061C52.3908 72.9377 52.7518 72.8144 53.1127 72.691C53.594 72.4444 53.8347 73.061 53.594 73.431C53.3534 73.6777 53.1127 73.9244 52.8721 74.4177Z" fill="#5C9B34"/>
<path d="M2.45707 84.161C2.21643 84.6543 1.97578 85.3943 2.45707 85.6409C2.81804 85.8876 3.29933 85.5176 3.53997 85.1476C6.30738 81.571 7.99189 77.3777 9.79673 73.3077C11.3609 69.9778 13.0454 66.5245 13.0454 62.8245C13.0454 61.2212 12.0828 58.8779 10.0374 59.6178C8.23254 60.2345 8.71383 62.9478 8.59351 64.4278C8.23254 68.8678 7.26996 73.3077 5.70577 77.501C4.74319 79.8443 3.66029 82.0643 2.45707 84.161Z" fill="#EF390F"/>
<path d="M94.1309 59.4945C98.9438 58.1378 102.674 54.3145 105.922 50.4912C106.765 49.5046 107.487 48.5179 107.968 47.4079C108.088 47.1613 108.088 46.9146 108.329 46.7913C108.449 46.6679 108.81 46.5446 108.931 46.7913C109.051 46.9146 109.051 47.1613 109.051 47.4079C108.329 50.7379 106.043 53.4512 103.757 55.7945C101.35 58.2612 98.7031 60.4812 95.9357 62.4545C94.6122 63.4411 93.2886 64.3044 91.8448 64.7978C91.1228 65.0444 90.2806 65.1678 89.5587 64.6744C88.5961 64.0578 88.5961 62.5778 88.957 61.4678C89.9196 58.8778 92.2057 59.9878 94.1309 59.4945Z" fill="#5C9B34"/>
<path d="M52.0298 72.9377C51.7892 73.061 51.5485 73.3077 51.5485 73.5544C51.5485 73.9244 51.9095 74.0477 52.1501 74.0477C52.5111 74.0477 52.7517 73.801 52.9924 73.6777C55.8801 71.581 58.4069 68.7444 60.8133 65.9078C62.2572 64.3045 63.7011 62.4545 64.1824 60.3578C64.3027 59.6178 64.423 58.7545 63.9417 58.0145C63.7011 57.5212 63.0995 57.1512 62.4978 57.2745C61.7759 57.3978 61.7759 57.7678 61.5353 58.3845C60.9337 59.7412 60.4524 61.0978 59.7304 62.3311C58.5272 64.9211 57.0833 67.3878 55.2785 69.6077C54.3159 70.8411 53.233 71.951 52.0298 72.9377Z" fill="#5C9B34"/>
<path d="M37.9521 54.4379C40.5992 61.4678 44.4495 67.8811 49.2624 73.5544C49.5031 73.9244 49.7437 74.4177 49.5031 74.6643C49.2624 74.911 48.9015 74.6643 48.5405 74.541C45.4121 72.321 42.2837 69.9777 39.9976 66.8944C37.7115 63.8111 36.2676 59.8645 36.8692 55.9178C36.9896 55.4245 37.1099 54.9312 37.4708 54.8079C37.8318 54.5612 38.4334 55.0545 38.1928 55.4245L37.9521 54.4379Z" fill="#EF390F"/>
<path d="M1.61482 81.201C1.37418 81.3243 1.01321 81.3243 0.772566 81.571C0.531921 81.8177 0.411599 82.1877 0.531921 82.4343C0.652244 82.681 1.13353 82.8043 1.37418 82.681C1.73514 82.5577 1.97579 82.4343 2.33675 82.4343C1.4945 83.2976 0.772566 84.2843 0.170955 85.271C0.0506327 85.5176 -0.0696894 85.8876 0.0506328 86.1343C0.170955 86.3809 0.531922 86.3809 0.652244 86.2576C0.892888 86.1343 1.01321 86.011 1.13353 85.7643C1.01321 86.1343 0.772566 86.3809 0.531922 86.6276C0.411599 86.9976 0.411599 87.4909 0.772566 87.4909C1.01321 87.4909 1.13353 87.3676 1.25386 87.2443C1.4945 86.9976 1.73514 86.7509 1.97579 86.381C1.85547 86.5043 1.73514 86.6276 1.73514 86.7509C1.73514 86.8743 1.73514 87.1209 1.85547 87.1209C1.97579 87.1209 2.09611 87.1209 2.09611 87.1209C2.93837 86.9976 3.41966 86.1343 3.90094 85.5176C5.34481 83.1743 6.30739 80.7077 6.909 77.9944C7.14964 77.131 6.42771 77.6244 6.06674 77.871C5.58545 78.3644 5.22449 78.8577 4.62288 79.2277C4.02127 80.2143 2.81804 80.831 1.61482 81.201Z" fill="#EF390F"/>
<path d="M107.487 43.5847C107.366 43.2147 107.366 42.8447 107.366 42.4747C107.487 42.1047 107.727 41.7347 108.088 41.858C108.449 41.858 108.69 42.3513 108.81 42.7213C108.931 43.0913 108.931 43.4613 109.051 43.8313C109.532 42.598 110.134 41.3647 110.856 40.1314C111.096 39.8847 111.337 39.5147 111.698 39.638C111.939 39.638 112.179 40.008 112.179 40.2547C112.179 40.5014 112.059 40.748 111.939 40.9947C112.179 40.748 112.3 40.2547 112.54 39.8847C112.781 39.5147 113.382 39.3914 113.503 39.7614C113.623 40.008 113.503 40.2547 113.503 40.5014C113.382 40.8714 113.262 41.2414 113.021 41.7347C113.142 41.6113 113.142 41.3647 113.262 41.3647C113.382 41.2414 113.623 41.2414 113.743 41.3647C113.864 41.488 113.864 41.488 113.864 41.6114C114.104 42.4747 113.623 43.4613 113.142 44.3247C111.578 46.9146 109.532 49.2579 107.246 51.1079C106.524 51.7246 106.644 50.8613 106.765 50.2446C107.005 49.5046 107.246 48.8879 107.487 48.148C107.727 46.5446 107.727 44.9413 107.487 43.5847Z" fill="#5C9B34"/>
<path d="M27.1232 18.3015C25.9199 14.9716 24.5964 11.6416 23.2729 8.31162C22.5509 6.46163 21.7087 4.73498 20.8664 3.00833C20.5054 2.39167 20.1445 1.65168 19.5429 1.28168C19.1819 1.03501 18.8209 0.911682 18.46 0.911682C18.099 0.911682 17.738 1.15835 17.3771 1.40501C16.8958 1.89834 16.6551 2.63833 16.5348 3.37833C16.0535 5.22831 15.6926 7.20163 15.2113 9.05161C14.4893 12.5049 13.8877 16.0815 13.4064 19.6582C13.0455 22.6182 11.9626 26.0715 13.5268 28.6614C14.2487 29.8948 15.0909 30.7581 16.1738 31.7447C16.8958 32.3614 17.6177 32.8547 18.3396 33.1014C19.0616 33.3481 20.1445 33.3481 20.8664 32.7314C21.2274 32.4847 21.468 32.1147 21.5883 31.7447C21.829 32.1147 22.19 32.3614 22.5509 32.4847C23.3932 32.8547 24.3558 32.7314 25.0777 32.2381C25.7996 31.7447 26.4012 31.1281 27.0028 30.3881C27.8451 29.2781 28.567 28.1681 28.928 26.8114C29.7703 24.2215 28.0857 21.0148 27.1232 18.3015Z" fill="#FF5A27"/>
<path d="M28.8077 27.1814C29.7702 24.2215 27.9654 21.0148 27.0028 18.3015C25.7996 14.9716 24.4761 11.6416 23.1525 8.31162C22.4306 6.46163 21.5883 4.73498 20.7461 3.00833C20.3851 2.39167 20.0241 1.65168 19.4225 1.28168C19.1819 1.03501 18.8209 0.911682 18.46 0.911682C18.3396 0.911682 18.2193 0.911682 18.099 0.911682C18.5803 1.15835 19.0616 1.65168 19.4225 2.02167C20.3851 3.25499 20.9867 4.73498 21.468 6.21497C22.0696 8.43495 22.6712 10.6549 22.9119 12.9982C23.3932 15.8349 23.5135 18.7949 22.6712 21.5082C22.3103 22.8648 21.5883 24.2215 20.3851 24.9615C18.9412 25.8248 17.1364 25.7015 15.4519 25.5781C15.5722 26.6881 16.2942 27.6748 17.3771 28.1681C18.3396 28.6614 19.4225 28.9081 20.5054 29.0314C22.0696 29.2781 23.7541 29.5248 25.4386 29.4014C26.2809 29.2781 27.1232 29.1548 27.9654 28.9081C28.3264 28.4148 28.6873 27.7981 28.8077 27.1814Z" fill="#EF390F"/>
<path d="M22.6712 43.2146L5.22449 44.3246L17.6177 116.721L24.837 120.174L30.7328 119.557L36.6286 118.941L43.0057 113.884L39.9976 40.6246L22.6712 43.2146Z" fill="#FF5A27"/>
<path d="M36.6286 118.941L32.1766 41.488L40.1179 40.5013L43.0056 113.884L36.6286 118.941Z" fill="#EF390F"/>
<path d="M24.837 120.174L14.008 45.6813L12.2032 46.6679L21.2274 118.447L24.837 120.174Z" fill="#FF7336"/>
<path d="M40.1179 40.5013L28.8076 22.8648C28.8076 23.2348 28.8076 23.7281 28.6873 23.9748C28.4467 24.8381 27.3638 25.3315 26.5215 25.3315C26.0402 25.3315 25.6792 25.2081 25.3183 24.9615C25.198 24.8381 24.837 24.5915 24.7167 24.5915C24.476 24.5915 24.2354 24.8381 24.1151 24.9615C23.5134 25.3315 22.7915 25.3315 22.3102 24.8381C21.5883 25.5781 20.8664 26.3181 19.7835 26.4414C18.9412 26.5648 18.0989 26.1948 17.6177 25.4548C16.7754 26.0714 15.6925 26.3181 14.6096 25.9481C14.008 25.7014 13.1657 25.2081 12.9251 24.5915L5.34479 44.3246L5.46511 44.3246C5.46511 44.4479 5.46511 44.5713 5.46511 44.6946C5.82608 46.5446 7.26994 48.1479 8.95446 48.6412C10.7593 49.2579 12.9251 48.7646 14.369 47.4079C14.6096 48.3946 15.4519 48.8879 16.4144 49.2579C19.1818 50.4912 22.3102 50.9845 25.198 50.3679C28.206 49.7512 30.8531 47.9012 32.297 45.1879C32.7783 46.0513 33.8612 46.1746 34.8237 46.0513C36.027 45.9279 37.3505 45.5579 38.3131 44.8179C39.2757 44.2013 39.9976 41.858 40.1179 40.5013C39.9976 40.6246 39.9976 40.6246 40.1179 40.5013Z" fill="#FFCE80"/>
<path d="M39.9976 40.6246L28.6873 22.8648C28.6873 23.2348 28.6873 23.7281 28.567 23.9748C28.3264 24.8381 27.2435 25.3315 26.4012 25.3315C25.9199 25.3315 25.559 25.2081 25.198 24.9615C25.0777 24.8381 24.7167 24.5915 24.5964 24.5915C25.0777 25.4548 25.6793 26.1948 25.9199 26.6881C27.6044 29.8947 28.928 33.2247 29.7702 36.678C30.2515 38.7747 30.7328 40.9946 30.1312 42.968C29.4093 45.5579 27.3638 47.6546 24.9574 48.8879C23.5135 49.6279 22.0696 49.9979 20.5054 50.3679C21.9493 50.6146 23.5135 50.6146 24.9574 50.2446C27.9654 49.6279 30.6125 47.7779 32.0564 45.0646C32.5377 45.9279 33.6206 46.0513 34.5831 45.9279C35.7864 45.8046 37.1099 45.4346 38.0725 44.6946C39.2757 44.2013 39.9976 41.858 39.9976 40.6246Z" fill="#FFBE71"/>
<path opacity="0.31" d="M13.5267 39.1447C13.2861 40.378 12.9251 41.7347 12.3235 42.8446C11.1203 44.6946 8.71381 45.4346 6.66834 44.818C7.63091 46.2979 9.1951 47.7779 10.8796 47.6546C11.8422 47.5313 12.6844 46.9146 13.1657 46.0513C13.7673 45.3113 14.008 44.3246 14.2486 43.338C14.9706 40.5013 15.0909 37.5414 15.3315 34.5814C15.0909 32.6081 15.5722 30.3881 15.6925 28.2914C15.4519 31.8681 14.2486 35.568 13.5267 39.1447Z" fill="white"/>
<path opacity="0.31" d="M23.2728 48.2712C25.7996 47.9012 28.0857 45.8046 28.4467 42.9679C28.567 41.9813 28.4467 40.8713 28.206 39.8846C27.6044 36.4313 26.6419 32.978 25.4386 29.6481C25.7996 31.6214 26.4012 33.5947 26.8825 35.568C27.2435 37.5413 27.6044 39.638 27.2435 41.6113C26.8825 43.5846 26.0402 45.4346 24.4761 46.4213C22.9119 47.4079 20.8664 47.2846 19.5428 45.8046C19.9038 46.5446 20.1445 47.2846 20.8664 47.7779C21.468 48.3946 22.5509 48.3946 23.2728 48.2712Z" fill="white"/>
<path opacity="0.22" d="M17.377 3.13166C16.5348 5.35164 16.2941 7.57162 15.9332 9.91493C15.4519 13.2449 15.0909 16.4515 14.7299 19.7815C14.6096 20.5215 14.6096 21.3848 14.6096 22.1248C14.6096 22.3715 14.6096 22.4948 14.8503 22.6181C15.0909 22.7415 15.3316 22.3715 15.4519 22.0015C16.5348 16.9449 17.0161 11.7649 18.3396 6.83162C18.5803 5.84497 18.9412 4.61164 18.8209 3.50165C18.7006 2.26833 17.8583 1.89834 17.377 3.13166Z" fill="white"/>
<path d="M89.9313 19.0415C89.5704 15.4649 89.2094 11.8883 88.6078 8.43497C88.3671 6.46166 88.0062 4.61168 87.6452 2.63836C87.5249 1.89837 87.2842 1.15837 86.9233 0.541713C86.6826 0.295048 86.3217 0.0483839 85.9607 0.0483839C85.5997 -0.0749483 85.1184 0.0483839 84.8778 0.295048C84.2762 0.665045 83.9152 1.40504 83.5542 2.0217C82.5917 3.74835 81.7494 5.475 80.9072 7.20165C79.343 10.4083 77.8991 13.6149 76.5756 16.9449C75.4927 19.6582 73.5675 22.7415 74.4098 25.7015C74.7707 27.0581 75.4927 28.1681 76.2146 29.2781C76.6959 30.0181 77.2975 30.7581 78.0194 31.2514C78.7414 31.7448 79.7039 31.9914 80.5462 31.6214C80.9072 31.4981 81.2681 31.2514 81.5088 30.8814C81.6291 31.2514 81.8697 31.6214 82.2307 31.8681C82.9526 32.4848 83.9152 32.4848 84.7575 32.3614C85.5997 32.1148 86.3217 31.6214 87.0436 31.1281C88.1265 30.2648 89.0891 29.4015 89.811 28.2915C91.1345 25.4548 90.172 22.0015 89.9313 19.0415Z" fill="#6DBF3D"/>
<path d="M89.45 28.0448C91.1345 25.4548 90.1719 21.8782 89.9313 19.0416C89.5703 15.4649 89.2094 11.8883 88.6077 8.43499C88.3671 6.46168 88.0061 4.61169 87.6452 2.63838C87.5248 1.89838 87.2842 1.15839 86.9232 0.54173C86.6826 0.295065 86.3216 0.0484009 85.9607 0.0484009C85.8403 0.0484009 85.72 0.0484009 85.5997 0.0484009C86.081 0.418398 86.3216 1.03506 86.6826 1.52839C87.4045 3.00837 87.5248 4.61169 87.5248 6.09168C87.6452 8.43499 87.5248 10.655 87.2842 12.9983C86.9232 15.8349 86.4419 18.7949 84.8778 21.2615C84.1558 22.4949 83.0729 23.6049 81.7494 23.9749C80.1852 24.4682 78.3804 23.8515 76.8162 23.2349C76.5755 24.3448 77.1771 25.4548 78.0194 26.3182C78.8616 27.0582 79.8242 27.5515 80.9071 28.0448C82.351 28.6615 83.9152 29.4015 85.4794 29.6481C86.3216 29.7715 87.1639 29.8948 88.1265 29.7715C88.6077 29.2781 89.089 28.6615 89.45 28.0448Z" fill="#5C9B34"/>
<path d="M79.4633 41.9813L62.3775 38.528L55.5192 113.021L61.5353 118.324L67.4311 119.311L73.3269 120.174L80.6665 117.091L96.91 44.078L79.4633 41.9813Z" fill="#6DBF3D"/>
<path d="M73.3268 120.174L89.0891 42.8447L96.91 43.9547L80.6665 117.091L73.3268 120.174Z" fill="#5C9B34"/>
<path d="M61.5353 118.324L70.4391 42.1047L68.5139 42.598L58.6475 115.734L61.5353 118.324Z" fill="#7DD146"/>
<path d="M96.91 43.9546L90.4126 23.8515C90.2923 24.2215 90.172 24.5915 90.0517 24.9615C89.5704 25.7015 88.4875 25.9481 87.6452 25.7015C87.1639 25.5781 86.9233 25.3315 86.5623 25.0848C86.442 24.9615 86.2013 24.5915 85.9607 24.5915C85.7201 24.5915 85.4794 24.7148 85.2388 24.8381C84.6372 25.0848 83.9152 24.8381 83.4339 24.2215C82.5917 24.7148 81.6291 25.2081 80.6665 25.0848C79.8243 24.9615 79.1023 24.3448 78.7414 23.6048C77.7788 23.9748 76.6959 23.9748 75.7333 23.3582C75.1317 22.9882 74.5301 22.2482 74.4098 21.5082L62.3775 38.528L62.4979 38.528C62.4979 38.6514 62.3775 38.7747 62.3775 38.898C62.2572 40.748 63.3401 42.7213 64.784 43.708C66.3482 44.818 68.6343 44.9413 70.3188 43.9546C70.3188 44.9413 71.0407 45.6813 71.7627 46.2979C74.1691 48.2713 77.0569 49.5046 80.0649 49.7512C83.073 49.8746 86.2013 48.8879 88.2468 46.5446C88.4875 47.5313 89.45 47.9013 90.4126 48.0246C91.6158 48.2713 92.9394 48.1479 94.0223 47.7779C95.2255 47.2846 96.549 45.188 96.91 43.9546C96.91 44.078 96.91 44.078 96.91 43.9546Z" fill="#FFCE80"/>
<path d="M96.91 44.078L90.4126 23.9749C90.2923 24.3449 90.172 24.7148 90.0516 25.0848C89.5704 25.8248 88.4875 26.0715 87.6452 25.8248C87.1639 25.7015 86.9233 25.4548 86.5623 25.2082C86.442 25.0848 86.2013 24.7148 85.9607 24.7148C86.2013 25.7015 86.5623 26.5648 86.6826 27.0582C87.5249 30.5115 87.8858 34.2114 87.8858 37.7881C87.8858 39.8847 87.7655 42.1047 86.6826 44.078C85.3591 46.4213 82.8323 47.9013 80.1852 48.3946C78.621 48.7646 77.0568 48.7646 75.613 48.7646C77.0568 49.3813 78.5007 49.7513 79.9446 49.8746C82.9526 49.998 86.081 49.0113 88.1265 46.668C88.3671 47.6546 89.3297 48.0246 90.2923 48.148C91.4955 48.3946 92.8191 48.2713 93.902 47.9013C95.2255 47.2846 96.549 45.188 96.91 44.078Z" fill="#FFBE71"/>
<path opacity="0.31" d="M71.6423 35.6914C71.0407 36.8014 70.4391 38.0347 69.4765 38.898C67.9124 40.378 65.3856 40.5013 63.5807 39.268C64.1824 40.9947 65.2653 42.8447 66.9498 43.0913C67.9123 43.2147 68.8749 42.8447 69.5969 42.228C70.3188 41.6113 70.9204 40.748 71.2814 39.8847C72.7252 37.2947 73.5675 34.4581 74.5301 31.6214C74.7707 29.6481 75.8536 27.5515 76.4552 25.7015C75.252 29.1548 73.2065 32.3614 71.6423 35.6914Z" fill="white"/>
<path opacity="0.31" d="M78.8617 47.038C81.3884 47.2846 84.1558 45.928 85.1184 43.2147C85.4794 42.228 85.5997 41.2413 85.72 40.1313C85.9607 36.5547 85.9607 33.1014 85.5997 29.5248C85.4794 31.6214 85.5997 33.5947 85.4794 35.6914C85.3591 37.788 85.1184 39.7614 84.2762 41.6113C83.4339 43.4613 82.1104 45.0646 80.4258 45.558C78.7413 46.0513 76.6959 45.4346 75.7333 43.708C75.9739 44.5713 75.9739 45.3113 76.4552 45.928C77.0568 46.668 78.0194 46.9146 78.8617 47.038Z" fill="white"/>
<path opacity="0.22" d="M84.3965 1.89835C83.073 3.74834 82.2307 5.96832 81.2681 8.06496C80.0649 11.1483 78.8617 14.2316 77.6584 17.3149C77.4178 18.0549 77.0568 18.7949 76.9365 19.5349C76.9365 19.7815 76.8162 19.9049 77.0568 20.0282C77.2975 20.2749 77.6585 19.9049 77.7788 19.6582C80.0649 15.0949 81.8697 10.2849 84.3965 5.72165C84.9981 4.73499 85.5997 3.625 85.72 2.51501C85.8404 1.40502 85.1184 0.788363 84.3965 1.89835Z" fill="white"/>
<path d="M23.2728 75.281C24.7167 76.1444 26.6418 76.2677 28.0857 75.4044C29.5296 74.6644 30.6125 72.9377 30.7328 71.3344C30.6125 74.1711 30.3718 77.0077 29.5296 79.5977C29.1686 80.5843 28.8076 81.571 27.9654 82.311C27.2434 83.051 26.0402 83.2976 25.0776 82.8043C24.5964 82.5576 24.2354 82.0643 23.8744 81.571C21.9493 78.611 20.3851 75.1577 19.6631 71.5811C20.2648 72.1977 21.5883 74.2944 23.2728 75.281Z" fill="#413E49"/>
<path d="M67.4193 64.4278C67.1787 65.9078 67.0583 67.8811 67.0583 69.3611C67.0583 71.5811 67.1787 73.9244 68.2616 75.8977C69.3445 77.871 71.2696 79.4743 73.5557 79.351C74.759 79.351 75.8419 78.7343 76.8044 78.1177C80.2938 75.7744 82.3393 71.7044 83.0612 67.5111L67.4193 64.4278Z" fill="#413E49"/>
<path d="M65.3739 54.8079C65.9755 53.6979 66.8177 52.7113 68.021 52.3413C68.5023 52.2179 69.1039 52.0946 69.5852 52.3413C70.1868 52.5879 70.5477 53.2046 70.7884 53.6979C71.6306 55.5479 71.751 57.5212 71.8713 59.4945C71.5103 58.0145 71.1493 56.4112 70.0664 55.3012C69.4648 54.6846 68.6226 54.4379 67.7803 54.3146C67.4194 54.3146 67.0584 54.3146 66.8177 54.5612C66.5771 54.6846 66.4568 54.9312 66.2161 55.1779C65.2536 56.5346 64.6519 58.1379 64.1707 59.8645C64.1707 58.3845 64.6519 56.2879 65.3739 54.8079Z" fill="#413E49"/>
<path d="M89.0773 59.1245C89.0773 57.8912 88.7163 56.5345 87.8741 55.6712C87.5131 55.3012 87.0318 54.9312 86.4302 54.9312C85.8286 54.9312 85.227 55.1779 84.7457 55.5479C83.1815 56.6579 82.0986 58.5078 81.136 60.1112C82.0986 59.0012 83.1815 57.7679 84.6254 57.3979C85.4676 57.1512 86.3099 57.2745 87.0318 57.6445C87.3928 57.7679 87.6334 58.0145 87.7538 58.2612C87.8741 58.5078 87.8741 58.7545 87.9944 59.1245C88.1147 60.8512 87.9944 62.5778 87.5131 64.1811C88.596 62.8245 89.0773 60.8512 89.0773 59.1245Z" fill="#413E49"/>
<path d="M75.7216 73.6777C74.9996 73.431 74.037 73.431 73.3151 73.9244C72.8338 73.3077 71.9916 73.061 71.1493 73.061C70.3071 73.1844 69.5851 73.5544 69.1038 74.0477C68.6225 74.541 68.2616 75.0343 68.0209 75.651C68.0209 75.7743 68.1413 75.7743 68.1413 75.8977C69.2242 77.871 71.1493 79.4743 73.4354 79.351C74.6387 79.351 75.7216 78.7343 76.6841 78.1177C77.1654 77.871 77.5264 77.501 77.8874 77.131C77.8874 76.761 77.8874 76.391 77.767 76.1443C77.5264 75.1577 76.8045 74.0477 75.7216 73.6777Z" fill="#FF624D"/>
<path d="M66.4567 47.0379C65.9755 47.5313 65.4942 48.0246 65.3738 48.7646C65.6145 48.8879 65.8551 48.7646 66.0958 48.6413C67.299 48.0246 68.5022 47.2846 69.5851 46.4213C69.8258 46.298 69.9461 46.0513 70.0664 45.8046C70.3071 44.448 66.8177 46.6679 66.4567 47.0379Z" fill="#413E49"/>
<path d="M91.0025 50.9846C91.2431 51.6012 91.3634 52.3412 91.2431 52.9579C91.0025 52.9579 90.7618 52.7112 90.6415 52.5879C89.7992 51.4779 89.0773 50.2446 88.4757 49.0113C88.3554 48.7646 88.2351 48.5179 88.3554 48.2713C88.7163 46.9146 90.8822 50.4913 91.0025 50.9846Z" fill="#413E49"/>
<path d="M9.67642 51.8479C9.43577 52.2179 9.19513 52.5879 9.31545 52.9579C9.31545 53.0813 9.43577 53.2046 9.5561 53.3279C9.67642 53.4512 9.91706 53.4512 10.0374 53.3279C10.1577 53.2046 10.278 53.0813 10.3984 52.9579C11.3609 51.8479 12.6845 51.1079 14.1283 50.8613C14.369 50.8613 14.4893 50.8613 14.73 50.7379C14.9706 50.6146 15.0909 50.2446 14.9706 49.9979C14.6096 49.258 12.8048 49.7513 12.2032 49.9979C11.2406 50.2446 10.278 50.9846 9.67642 51.8479Z" fill="#413E49"/>
<path d="M36.8692 48.6413C37.2302 48.888 37.4708 49.2579 37.4708 49.6279C37.4708 49.7513 37.4708 49.8746 37.3505 49.9979C37.2302 50.1213 36.9895 50.1213 36.8692 50.1213C36.7489 50.1213 36.5082 49.9979 36.3879 49.8746C35.1847 49.0113 33.7408 48.518 32.2969 48.6413C32.0563 48.6413 31.936 48.6413 31.6953 48.6413C31.4547 48.518 31.2141 48.2713 31.3344 47.9013C31.4547 47.038 33.3798 47.2846 33.9815 47.2846C35.0644 47.408 36.0269 47.9013 36.8692 48.6413Z" fill="#413E49"/>
<path d="M48.1795 71.8277C48.2999 71.8277 48.4202 71.9511 48.5405 71.9511C48.6608 71.9511 48.7812 71.9511 48.7812 71.9511C49.2624 71.9511 49.7437 71.8277 50.225 71.8277C50.3453 71.8277 50.586 71.8277 50.7063 71.9511C50.8266 72.0744 50.8266 72.3211 50.7063 72.4444C50.586 72.5677 50.3453 72.6911 50.225 72.6911C50.586 72.8144 50.9469 72.8144 51.3079 72.9377C51.6689 73.0611 52.0298 73.1844 52.2705 73.431C52.5111 73.6777 52.7518 74.0477 52.7518 74.4177C52.7518 74.7877 52.5111 75.1577 52.1502 75.1577C52.1502 75.4044 52.1502 75.5277 51.9095 75.7744C51.7892 75.8977 51.5486 76.021 51.4282 76.1444C51.0673 76.2677 50.7063 76.5143 50.225 76.5143C49.6234 76.5143 49.1421 76.1444 48.6608 75.651C48.0592 75.0344 47.4576 74.2944 46.856 73.5544C46.495 73.1844 46.2544 72.6911 46.0137 72.1977C45.7731 71.7044 45.6528 71.2111 45.6528 70.5944C45.6528 70.3477 45.7731 70.1011 46.0137 70.1011C46.1341 70.1011 46.2544 70.1011 46.2544 70.2244C46.6153 70.4711 46.7357 70.8411 46.9763 71.0877C47.217 71.4577 47.8186 71.7044 48.1795 71.8277Z" fill="#EF390F"/>
<path d="M47.6982 73.801C47.9389 73.6777 48.1795 73.6777 48.2999 73.9244C48.4202 74.0477 48.2999 74.2944 48.1795 74.4177C48.4202 74.2944 48.6608 74.2944 48.7812 74.4177C48.9015 74.541 49.0218 74.7877 48.9015 75.0344C49.1421 74.911 49.3828 74.911 49.5031 75.1577C49.6234 75.4044 49.5031 75.651 49.3828 75.7744C49.2624 76.021 49.0218 76.2677 48.7812 76.5144C48.6608 76.6377 48.5405 76.6377 48.4202 76.6377C48.2999 76.5144 48.2999 76.391 48.1795 76.1444C48.1795 75.7744 47.9389 75.5277 47.6982 75.281C47.5779 75.1577 47.4576 75.0344 47.3373 74.911C47.217 74.7877 47.0966 74.6644 46.9763 74.541C46.9763 74.171 47.4576 73.9244 47.6982 73.801Z" fill="#5C9B34"/>
<path d="M19.9038 56.9046C20.9867 58.3845 21.3476 60.3579 21.468 62.2078C21.5883 64.1812 21.5883 66.4011 20.746 68.1278C19.9038 69.8544 18.2193 71.3344 16.2941 71.0878C15.3315 70.9644 14.4893 70.3478 13.7673 69.7311C13.0454 69.1144 12.5641 68.1278 12.0828 67.1411C11.2406 65.2911 10.639 63.1945 10.3983 61.0979C10.278 60.2345 10.278 59.3712 10.5186 58.5079C10.9999 56.5346 12.8048 55.1779 14.6096 55.0546C15.4518 55.0546 16.4144 54.8079 17.2567 55.0546C18.3396 55.4246 19.1818 56.0412 19.9038 56.9046Z" fill="#FFF3E9"/>
<path d="M10.3983 61.2212C10.278 60.3579 10.278 59.4945 10.5186 58.6312C10.639 57.8912 10.9999 57.2746 11.4812 56.6579C11.3609 56.7812 11.3609 57.0279 11.3609 57.1512C11.1202 58.0145 11.2406 58.8779 11.2406 59.7412C11.4812 61.8379 11.9625 63.8112 12.9251 65.7845C13.4064 66.7711 13.8877 67.6345 14.6096 68.3745C15.3315 69.1145 16.1738 69.6078 17.1364 69.7311C18.5802 69.9778 19.9038 69.2378 20.746 68.0045L20.746 68.1278C19.9038 69.9778 18.2193 71.3344 16.2941 71.0878C15.3315 70.9644 14.4893 70.3478 13.7673 69.7311C13.0454 68.9911 12.5641 68.1278 12.0828 67.1411C11.2406 65.4145 10.639 63.3178 10.3983 61.2212Z" fill="#FFE7C0"/>
<path d="M21.2273 60.6045C18.099 58.8779 15.0909 59.6179 12.9251 61.4679C12.0829 62.0845 11.6016 63.3179 11.2406 64.0578C11 63.4412 10.639 61.2212 10.7593 60.6045C11 60.1112 11.3609 59.6179 11.8422 59.3712C12.6845 58.7546 13.7674 58.5079 14.8503 58.3846C15.9332 58.2612 17.0161 58.1379 17.9786 58.2612C18.4599 58.2612 19.0615 58.3846 19.5428 58.5079C19.9038 58.6312 20.6257 58.7546 20.8664 59.1246C20.9867 59.2479 20.9867 59.4946 20.9867 59.6179C21.2273 59.9879 21.2273 60.3579 21.2273 60.6045Z" fill="#FFE7C0"/>
<path d="M20.8664 60.9745C21.2273 61.7145 21.2273 62.5778 21.2273 63.3178C21.2273 64.4278 20.9867 65.5378 20.3851 66.4011C19.7835 67.2645 18.7006 67.7578 17.738 67.2645C17.4974 67.1411 17.2567 66.8945 17.0161 66.6478C15.9332 65.4145 15.4519 63.6878 15.8128 61.9612C15.9332 61.2212 16.2941 60.4812 16.8957 59.9879C18.2193 58.8779 20.2648 59.3712 20.8664 60.9745Z" fill="#413E49"/>
<path d="M20.385 62.4545C20.385 62.7012 20.385 62.9478 20.2647 63.0712C20.1444 63.1945 20.0241 63.1945 19.9037 63.1945C19.5428 63.1945 19.1818 62.9478 18.8208 62.5778C18.4599 62.2079 18.2192 61.7145 18.0989 61.0979C17.9786 60.2345 18.7005 59.6179 19.4225 60.1112C20.0241 60.4812 20.2647 61.7145 20.385 62.4545Z" fill="white"/>
<path d="M20.3851 57.2746C19.6631 56.1646 18.5802 55.3012 17.377 54.8079C16.2941 54.4379 15.2112 54.3146 14.1283 54.4379C13.0454 54.5612 12.0828 54.8079 11.2406 55.5479C10.5186 56.1646 10.0373 57.2746 9.91703 58.2612C9.7967 59.2479 9.91703 60.3579 10.0373 61.3445C10.1577 62.0845 10.1577 62.2078 10.278 62.9478C11.1202 61.9612 11.6015 60.6045 14.2486 59.1245C16.7754 57.7679 20.5054 57.5212 21.5883 61.2212C21.468 60.9745 21.3476 59.7412 21.2273 59.3712C21.107 58.7545 20.8664 58.0145 20.3851 57.2746Z" fill="#FF8243"/>
<path d="M10.0374 58.2612C10.1577 57.2746 10.639 56.2879 11.3609 55.5479C11.7219 55.1779 12.2032 54.9313 12.5641 54.8079C11.8422 55.4246 11.4812 56.4112 11.3609 57.3979C11.2406 58.3846 11.3609 59.4945 11.4812 60.4812C11.6015 61.2212 11.4812 60.7279 11.6015 61.3445C11.1203 61.7145 10.7593 62.5778 10.3983 62.9478C10.278 62.2079 10.278 62.0845 10.1577 61.3445C9.91704 60.3579 9.79672 59.2479 10.0374 58.2612Z" fill="#EF390F"/>
<path opacity="0.3" d="M18.7005 56.1646C19.5428 56.7812 20.2647 57.5212 20.5054 58.3846C20.5054 58.5079 20.5054 58.6312 20.3851 58.6312C20.2647 58.6312 20.2647 58.6312 20.2647 58.5079C18.9412 57.2746 17.6176 55.9179 15.8128 55.3013C15.6925 55.3013 15.4518 55.1779 15.4518 55.0546C15.9331 54.8079 16.6551 55.1779 17.1364 55.3013C17.6176 55.5479 18.2193 55.7946 18.7005 56.1646Z" fill="white"/>
<path d="M38.6741 56.1646C39.2757 57.8912 39.1554 59.8645 38.9147 61.7145C38.5538 63.6878 37.9521 65.7845 36.7489 67.2645C35.5457 68.7444 33.5002 69.7311 31.6954 68.9911C30.8531 68.6211 30.1312 67.8811 29.6499 66.8945C29.1686 66.0311 28.928 65.0445 28.6873 63.9345C28.3264 61.8378 28.3264 59.7412 28.567 57.7679C28.6873 56.9045 28.928 56.0412 29.2889 55.3012C30.2515 53.4512 32.297 52.5879 34.1018 53.0813C34.9441 53.3279 35.9067 53.3279 36.6286 53.6979C37.5912 54.3146 38.3131 55.1779 38.6741 56.1646Z" fill="#FFF3E9"/>
<path d="M28.4467 57.7679C28.567 56.9046 28.8077 56.0412 29.1686 55.3013C29.5296 54.5613 30.0109 54.0679 30.6125 53.6979C30.4922 53.8213 30.3719 54.0679 30.3719 54.1913C30.0109 54.9313 29.7703 55.7946 29.6499 56.6579C29.289 58.7546 29.4093 60.8512 29.7703 62.8245C30.0109 63.8112 30.2515 64.9212 30.7328 65.7845C31.2141 66.6478 31.9361 67.3878 32.7783 67.8811C34.1019 68.4978 35.5457 68.1278 36.7489 67.2645C36.7489 67.2645 36.7489 67.3878 36.6286 67.3878C35.4254 68.8678 33.3799 69.8545 31.5751 69.1145C30.7328 68.7445 30.0109 68.0045 29.5296 67.0178C29.0483 66.1545 28.8077 65.1678 28.567 64.0578C28.2061 61.9612 28.2061 59.8645 28.4467 57.7679Z" fill="#FFE7C0"/>
<path d="M39.035 60.1112C36.388 57.6446 33.3799 57.5212 30.8531 58.7545C29.8906 59.2479 29.1686 60.2345 28.567 60.8512C28.567 60.2345 28.6873 58.0146 29.0483 57.3979C29.4093 56.9046 29.8906 56.6579 30.4922 56.5346C31.4548 56.2879 32.5377 56.2879 33.6206 56.2879C34.7035 56.4112 35.666 56.6579 36.7489 57.0279C37.2302 57.2746 37.7115 57.3979 38.1928 57.7679C38.5538 58.0146 39.1554 58.2612 39.396 58.7545C39.5163 58.8779 39.396 59.1245 39.396 59.2479C39.1554 59.4945 39.1554 59.7412 39.035 60.1112Z" fill="#FFE7C0"/>
<path d="M38.4334 59.9878C38.5537 60.7278 38.5537 61.5912 38.3131 62.4545C38.0724 63.5645 37.5912 64.5511 36.8692 65.2911C36.1473 66.0311 34.9441 66.1544 34.1018 65.5378C33.8612 65.2911 33.6205 65.0445 33.5002 64.7978C32.6579 63.4411 32.6579 61.4678 33.3799 59.9878C33.7408 59.2478 34.2221 58.6312 34.9441 58.2612C36.2676 57.5212 38.0724 58.3845 38.4334 59.9878Z" fill="#413E49"/>
<path d="M37.5911 61.3445C37.5911 61.5912 37.4708 61.8378 37.3505 61.9612C37.2302 61.9612 37.1099 61.9612 36.9895 61.9612C36.6286 61.8378 36.2676 61.4678 36.1473 61.0979C35.9066 60.6045 35.7863 60.1112 35.7863 59.4945C35.7863 58.6312 36.6286 58.2612 37.2302 58.8779C37.7115 59.3712 37.7115 60.7279 37.5911 61.3445Z" fill="white"/>
<path d="M39.1554 56.6579C38.6741 55.4246 37.9521 54.3146 36.8692 53.4512C36.027 52.8346 34.9441 52.3413 33.8612 52.2179C32.8986 52.0946 31.8157 52.0946 30.8531 52.4646C29.8905 52.9579 29.2889 53.8212 28.8076 54.6846C28.4467 55.6712 28.206 56.6579 28.0857 57.6445C27.9654 58.3845 27.9654 58.5079 27.9654 59.2479C29.0483 58.6312 29.8905 57.2745 32.7783 56.6579C35.5457 56.0412 39.2757 56.7812 39.396 60.7279C39.396 60.3579 39.6366 59.2479 39.5163 58.8779C39.396 58.2612 39.396 57.3979 39.1554 56.6579Z" fill="#FF8243"/>
<path d="M28.8076 54.8079C29.1686 53.8212 29.8905 53.0812 30.8531 52.5879C31.3344 52.3412 31.8157 52.2179 32.297 52.2179C31.4547 52.7112 30.8531 53.4512 30.4922 54.3145C30.1312 55.3012 29.8905 56.2879 29.7702 57.2745C29.6499 58.0145 29.7702 57.5212 29.6499 58.1378C29.0483 58.3845 28.4467 59.1245 27.9654 59.3712C27.9654 58.6312 27.9654 58.5078 28.0857 57.7678C28.206 56.7812 28.4467 55.7945 28.8076 54.8079Z" fill="#EF390F"/>
<path opacity="0.3" d="M37.7115 55.0545C38.4334 55.7945 38.7944 56.7812 38.9147 57.7678C38.9147 57.8912 38.9147 58.0145 38.7944 58.0145C38.674 58.0145 38.674 57.8912 38.674 57.8912C37.7115 56.2879 36.7489 54.6845 35.1847 53.5746C35.0644 53.4512 34.8237 53.3279 34.8237 53.2046C35.4253 53.0812 36.027 53.5746 36.3879 53.9445C36.8692 54.1912 37.3505 54.5612 37.7115 55.0545Z" fill="white"/>
</svg>
