<svg width="66" height="46" viewBox="0 0 66 46" fill="none" xmlns="http://www.w3.org/2000/svg">
<path d="M56.1003 11.6996L65.5103 35.4959L51.8003 21.5063L0.390259 22.8632L56.1003 11.6996Z" fill="#002C44"/>
<path d="M65.2202 0.87262C65.2202 0.87262 54.7801 9.30379 56.2001 11.9801L0.880142 22.5915C0.890142 22.5915 27.5002 5.13032 65.2202 0.87262Z" fill="#FF7B3A"/>
<path d="M65.9301 35.9545C66.3601 36.7125 44.9601 33.9145 44.9601 33.9145L52.3001 21.2257C52.3001 21.2257 62.1401 29.32 65.9301 35.9545Z" fill="#FBC949"/>
<path d="M52.3 21.2257C52.3 21.2257 42.24 36.6283 47.87 45.5741L3.05176e-05 22.7885C3.05176e-05 22.7885 47.21 20.3181 52.3 21.2257Z" fill="#F75E28"/>
</svg>
