<svg width="164" height="159" viewBox="0 0 164 159" fill="none" xmlns="http://www.w3.org/2000/svg">
<path d="M113.931 53.0197C106.523 48.3057 97.639 46.0606 88.9399 46.4478C67.02 47.3594 47.8693 63.9419 46.4434 87.7626C45.972 96.4661 47.9637 105.501 52.4099 113.149C56.9125 120.625 63.754 126.487 71.6725 130.225C79.5331 133.849 88.4708 135.35 97.1078 133.99C105.745 132.63 113.853 128.525 120.177 122.597C126.501 116.669 131.27 108.803 133.289 100.321C135.419 91.4942 134.457 82.2255 130.923 73.8284C127.617 65.3157 121.627 58.0185 113.931 53.0197Z" fill="#FF986D"/>
<path d="M139.536 56.2684C137.408 54.3328 134.492 55.0917 132.151 56.1338C129.124 57.5229 126.327 59.0825 123.531 60.9284C123.417 60.9862 123.302 61.044 123.302 61.044C123.36 61.1582 123.476 61.3866 123.534 61.5008C123.592 61.615 123.764 61.6714 123.821 61.7856C123.879 61.8998 124.109 62.0704 124.167 62.1846C125.137 61.55 126.165 61.0296 127.135 60.3951C129.246 59.1823 131.645 57.9682 133.988 57.2122C134.845 56.9217 135.988 56.6297 136.848 56.9116C137.709 57.1935 138.284 57.7631 138.689 58.5625C139.614 60.3896 139.223 62.4524 138.201 64.1176C137.067 66.1268 135.53 67.9091 133.993 69.6914C132.4 71.6457 130.749 73.4858 129.099 75.3259C125.797 79.0061 122.38 82.4579 118.79 85.8534C111.612 92.6443 103.8 98.7514 95.6991 104.288C87.4263 109.767 78.6923 114.62 69.7257 118.729C65.1563 120.756 60.6434 122.61 55.9006 124.294C53.8436 125.049 51.9008 125.745 49.6703 126.157C48.1265 126.508 46.1808 126.633 44.6891 125.953C44.1152 125.67 43.6555 125.329 43.4243 124.872C42.9588 123.386 42.9516 121.955 43.5733 120.349C44.0792 118.515 44.9871 116.907 45.8371 115.186C46.291 114.382 46.6871 113.464 47.1974 112.488C47.5935 111.57 48.2194 110.823 48.7875 109.961C49.2992 109.272 49.6968 108.64 50.2085 107.951C50.0351 107.608 49.8038 107.151 49.6303 106.809C49.4019 106.924 49.2314 107.154 49.003 107.27C47.8624 108.134 46.9517 109.169 45.9268 110.262C44.9019 111.355 43.877 112.448 43.1398 113.825C42.3447 115.089 41.7795 116.523 41.1564 117.842C40.0245 120.424 39.1253 123.749 41.4265 126.027C42.0596 126.711 43.0368 127.507 44.0689 127.845C45.101 128.184 46.1895 128.35 47.2765 128.23C49.6804 128.161 52.0236 127.405 54.2526 126.707C57.1668 125.661 60.081 124.616 62.9952 123.571C68.5938 121.311 74.1909 118.764 79.5582 116.046C90.4633 110.382 100.734 103.747 110.312 96.0282C119.776 88.3672 128.491 79.794 136.287 70.5385C138.051 68.3544 140.215 66.111 141.175 63.4729C141.792 61.0084 141.434 58.0335 139.536 56.2684Z" fill="black"/>
<path d="M81.8334 56.2149C81.7178 55.9866 81.488 55.816 81.2581 55.6454C81.0861 55.589 80.9141 55.5326 80.6843 55.3621C80.3402 55.2493 79.882 55.1944 79.5394 55.3678C79.311 55.4835 79.1968 55.5413 78.9106 55.5427C78.568 55.7162 78.2833 56.0038 77.9985 56.2915C77.8843 56.3493 77.8279 56.5213 77.7137 56.5791C77.5431 56.809 77.4304 57.153 77.374 57.325C77.2612 57.669 77.2627 57.9552 77.3783 58.1836C77.3797 58.4698 77.5532 58.8124 77.783 58.983C77.8987 59.2114 78.1285 59.382 78.3583 59.5526C78.5303 59.6089 78.7024 59.6653 78.9322 59.8359C79.2762 59.9487 79.7344 60.0036 80.077 59.8301C80.3054 59.7145 80.4196 59.6567 80.7058 59.6553C81.0484 59.4818 81.3332 59.1942 81.618 58.9065C81.7322 58.8487 81.7886 58.6767 81.9028 58.6189C82.0733 58.389 82.1861 58.045 82.2425 57.873C82.3552 57.5289 82.3538 57.2427 82.2382 57.0143C82.0647 56.6717 81.9491 56.4433 81.8334 56.2149Z" fill="#E6EAEC"/>
<path d="M77.985 76.3843C75.4726 77.6563 77.4963 81.6532 80.0086 80.3812C82.6351 79.0514 80.6115 75.0544 77.985 76.3843Z" fill="#E6EAEC"/>
<path d="M98.1749 61.5711C96.0052 62.6697 97.6819 65.9814 99.8516 64.8828C102.079 63.8985 100.345 60.4726 98.1749 61.5711Z" fill="#E6EAEC"/>
<path d="M106.499 77.7293C106.096 77.2161 105.464 76.8186 104.834 76.7073C104.146 76.4817 103.574 76.4846 102.887 76.5453C102.258 76.7202 101.573 77.0671 101.06 77.4704L100.946 77.5282C100.432 77.9315 100.035 78.5632 99.8093 79.2513C99.5838 79.9393 99.4725 80.5696 99.7052 81.3126C99.9379 82.0556 100.227 82.6266 100.688 83.2539C101.091 83.7671 101.723 84.1646 102.411 84.3901C103.099 84.6157 103.729 84.727 104.472 84.4943C105.215 84.2616 105.786 83.9725 106.414 83.5114C106.927 83.1081 107.325 82.4764 107.55 81.7883C107.776 81.1003 107.887 80.47 107.654 79.727L107.596 79.6128C107.249 78.9276 106.903 78.2425 106.499 77.7293Z" fill="#E6EAEC"/>
<path d="M88.093 94.3653C87.8054 94.0805 87.4035 93.8536 87.0595 93.7408C86.8875 93.6844 86.6013 93.6859 86.4293 93.6295C85.971 93.5746 85.5706 93.6338 85.1138 93.8651C84.7712 94.0385 84.5428 94.1542 84.4301 94.4982C84.2595 94.728 84.0889 94.9579 83.9762 95.3019C83.8634 95.6459 83.8649 95.9321 83.8663 96.2184C83.8677 96.5046 83.927 96.905 84.0426 97.1334C84.1583 97.3618 84.2161 97.476 84.4459 97.6465C84.7336 97.9313 85.1354 98.1583 85.4794 98.271C85.6515 98.3274 85.9377 98.326 86.1097 98.3824C86.5679 98.4373 86.9683 98.378 87.4251 98.1468C87.7677 97.9733 87.9961 97.8577 88.1089 97.5136C88.2794 97.2838 88.45 97.054 88.5628 96.71C88.6755 96.3659 88.6741 96.0797 88.6727 95.7935C88.6712 95.5073 88.5556 95.2789 88.3821 94.9363C88.3243 94.8221 88.2087 94.5937 88.093 94.3653Z" fill="#E6EAEC"/>
<path d="M121.509 91.507C115.685 94.4557 120.253 103.477 126.077 100.529C131.901 97.5799 127.333 88.5583 121.509 91.507Z" fill="#E6EAEC"/>
<path d="M108.188 106.286C107.901 106.001 107.671 105.83 107.327 105.717C107.155 105.661 106.983 105.605 106.811 105.548C106.41 105.608 106.124 105.609 105.782 105.782C105.553 105.898 105.325 106.014 105.154 106.244C104.984 106.473 104.813 106.703 104.757 106.875C104.586 107.105 104.588 107.391 104.703 107.62C104.705 107.906 104.706 108.192 104.936 108.363C104.994 108.477 105.109 108.705 105.281 108.762C105.569 109.046 105.799 109.217 106.143 109.33C106.315 109.386 106.487 109.443 106.659 109.499C107.059 109.44 107.346 109.438 107.688 109.265C107.917 109.149 108.145 109.034 108.316 108.804C108.486 108.574 108.657 108.344 108.713 108.172C108.884 107.942 108.882 107.656 108.767 107.428C108.765 107.141 108.764 106.855 108.534 106.685C108.418 106.456 108.36 106.342 108.188 106.286Z" fill="#E6EAEC"/>
<path d="M119.852 69.2474C119.506 68.8484 119.104 68.6214 118.588 68.4523C118.416 68.3959 118.13 68.3974 117.958 68.341C117.5 68.286 116.985 68.4031 116.529 68.6344C116.186 68.8078 115.901 69.0955 115.731 69.3253C115.446 69.613 115.275 69.8428 115.22 70.301C115.108 70.6451 114.995 70.9891 115.054 71.3895C115.113 71.7899 115.115 72.0761 115.288 72.4187C115.404 72.6471 115.634 72.8177 115.749 73.0461C116.095 73.4451 116.497 73.672 117.013 73.8412C117.185 73.8975 117.471 73.8961 117.643 73.9525C118.101 74.0074 118.616 73.8903 119.073 73.6591C119.415 73.4856 119.7 73.198 119.87 72.9681C120.155 72.6805 120.326 72.4506 120.381 71.9924C120.493 71.6484 120.606 71.3044 120.547 70.9039C120.488 70.5035 120.314 70.1609 120.141 69.8183C120.025 69.59 119.967 69.4758 119.852 69.2474Z" fill="#E6EAEC"/>
<path d="M66.2689 80.164C64.556 81.0313 65.8858 83.6578 67.5987 82.7905C69.3117 81.9233 67.9819 79.2967 66.2689 80.164Z" fill="#E6EAEC"/>
<path d="M87.384 67.178C87.1541 67.0074 86.9243 66.8368 86.7523 66.7805C86.5803 66.7241 86.4661 66.7819 86.4082 66.6677C86.122 66.6691 85.8358 66.6706 85.6074 66.7862C85.379 66.9018 85.2648 66.9597 85.0943 67.1895C84.8659 67.3051 84.8095 67.4771 84.8109 67.7634C84.7545 67.9354 84.6982 68.1074 84.6996 68.3936C84.6432 68.5656 84.7589 68.794 84.8745 69.0224C84.9323 69.1366 84.9901 69.2508 85.048 69.365C85.2778 69.5356 85.5076 69.7062 85.6796 69.7625L86.0237 69.8753C86.3099 69.8739 86.5961 69.8724 86.8245 69.7568C87.0529 69.6411 87.1671 69.5833 87.3377 69.3535C87.566 69.2379 87.6224 69.0658 87.621 68.7796C87.6774 68.6076 87.7337 68.4356 87.7323 68.1494C87.7887 67.9774 87.6731 67.749 87.5574 67.5206C87.4996 67.4064 87.4418 67.2922 87.384 67.178Z" fill="#E6EAEC"/>
<path d="M99.2916 90.1302C97.236 91.1709 98.7971 94.2543 100.853 93.2136C102.966 92.287 101.347 89.0895 99.2916 90.1302Z" fill="#E6EAEC"/>
<path d="M92.9175 120.33C92.2844 119.646 91.4229 119.078 90.5628 118.796C90.1046 118.741 89.5885 118.572 89.1303 118.517C88.0997 118.465 87.1846 118.641 86.2711 119.104C85.5859 119.451 84.9585 119.912 84.561 120.544C84.1056 121.061 83.7081 121.693 83.4826 122.381C83.2571 123.069 83.2036 123.813 83.2642 124.5C83.2107 125.244 83.4435 125.987 83.7904 126.673C84.1358 127.072 84.3671 127.528 84.7126 127.927C85.3457 128.611 86.2072 129.179 87.0673 129.461C87.5255 129.516 88.0416 129.685 88.4998 129.74C89.5304 129.792 90.4455 129.616 91.359 129.153C92.0442 128.806 92.6716 128.345 93.0691 127.714C93.5245 127.196 93.922 126.564 94.1475 125.876C94.3731 125.188 94.4266 124.444 94.3659 123.757C94.4194 123.013 94.1867 122.27 93.8397 121.585C93.4943 121.186 93.1488 120.787 92.9175 120.33Z" fill="#E6EAEC"/>
<path d="M34.9167 95.0333L30.4601 96.7158L29.3382 101.301L26.4574 97.5945L21.651 98.0194L24.2068 93.9995L22.468 89.7149L27.0531 90.8367L30.7017 87.8417L30.9545 92.5917L34.9167 95.0333Z" fill="black"/>
<path d="M96.0624 28.4946L90.1532 25.8911L84.8466 29.2952L85.3874 22.9956L80.4438 18.8989L86.7333 17.4362L89.0506 11.5284L92.2841 17.0648L98.64 17.4336L94.4855 22.263L96.0624 28.4946Z" fill="black"/>
<path d="M156.539 90.7012L152.709 91.9226L151.583 95.6491L149.22 92.3981L145.271 92.5324L147.659 89.3148L146.323 85.5434L150.108 86.7837L153.359 84.4204L153.321 88.3132L156.539 90.7012Z" fill="black"/>
</svg>
