<svg width="262" height="230" viewBox="0 0 262 230" fill="none" xmlns="http://www.w3.org/2000/svg">
<g opacity="0.5" clip-path="url(#clip0_8_165)">
<path d="M80.5679 196.157C79.4649 192.593 75.7313 190.624 72.1673 191.727L69.5537 192.536L63.1385 194.521L67.1095 207.352L76.1383 204.557C79.7022 203.454 81.671 199.721 80.5679 196.157Z" stroke="black" stroke-width="3" stroke-miterlimit="10"/>
<path d="M73.9834 184.135C72.8804 180.571 69.1467 178.602 65.5828 179.706L59.1676 181.691L63.1386 194.521L69.5537 192.536C73.1177 191.433 75.0865 187.699 73.9834 184.135Z" stroke="black" stroke-width="3" stroke-miterlimit="10"/>
<path d="M53.1419 225.734L104.463 209.85L88.5792 158.529L37.2579 174.413L53.1419 225.734ZM63.1386 194.521L59.1676 181.691L65.5827 179.706C69.1467 178.602 72.8803 180.571 73.9834 184.135C75.0864 187.699 73.1177 191.433 69.5537 192.536L72.1673 191.727C75.7313 190.624 79.4649 192.593 80.568 196.157C81.671 199.721 79.7023 203.454 76.1383 204.557L67.1095 207.352L63.1386 194.521Z" stroke="black" stroke-width="3" stroke-miterlimit="10"/>
<path d="M141.701 175.804C143.025 180.081 140.646 184.592 136.369 185.916C132.093 187.239 127.581 184.86 126.258 180.584L123.095 170.367C121.772 166.09 124.151 161.579 128.428 160.255C132.704 158.931 137.216 161.31 138.539 165.587M98.7959 155.367L114.68 206.688L166.001 190.804L150.117 139.483L98.7959 155.367Z" stroke="black" stroke-width="3" stroke-miterlimit="10"/>
<path d="M81.2261 107.431L75.9989 109.049L76.6802 128.495L91.6489 123.862L81.2261 107.431Z" stroke="black" stroke-width="3" stroke-miterlimit="10"/>
<path d="M76.7989 128.458L77.1098 139.558L76.6801 128.495L91.6488 123.862M76.7989 128.458L76.5613 128.532M76.7989 128.458L76.1177 109.012L81.226 107.431L91.6488 123.862M91.6488 123.862L91.8864 123.789M91.6488 123.862L97.6621 133.197M100.302 87.4678L48.9808 103.352L64.8648 154.673L116.186 138.789L100.302 87.4678Z" stroke="black" stroke-width="3" stroke-miterlimit="10"/>
</g>
<g clip-path="url(#clip1_8_165)">
<path d="M137.642 91.0442C138.518 88.5037 139.394 85.9632 140.309 83.4976C145.875 68.8533 151.441 54.209 157.046 39.6395C157.409 38.7523 157.81 37.9399 158.211 37.1276C159.402 37.3164 160.554 37.4304 161.745 37.6193C162.523 37.8028 163.387 37.8883 164.165 38.0719C163.803 38.9591 163.479 39.9211 163.117 40.8083C162.116 43.3719 161.076 45.8608 160.075 48.4244C159.398 50.026 158.884 51.6793 158.332 53.2577C157.007 56.7834 155.682 60.3091 154.319 63.7599C152.813 67.7292 151.307 71.6985 149.801 75.6678C148.848 78.0586 147.933 80.5243 147.104 82.8919C146.427 84.4936 145.913 86.1468 145.236 87.7484C144.912 88.7105 144.588 89.6725 144.303 90.7094C143.353 90.7218 142.316 90.8323 141.366 90.8447C140.128 90.8287 138.996 91.2847 137.642 91.0442Z" fill="#45AAB8"/>
<path d="M176.496 39.7183C173.532 47.484 170.606 55.3246 167.556 63.1883C163.992 72.7054 160.427 82.2224 156.863 91.7394C156.854 91.987 156.682 92.183 156.51 92.3789C154.867 92.1099 153.255 92.1633 151.681 92.2916C151.517 92.2399 151.517 92.2399 151.354 92.1883C150.941 92.1829 150.403 92.2007 149.991 92.1954C150.163 91.9994 150.249 91.9014 150.421 91.7054C150.926 90.2998 151.431 88.8942 151.975 87.5633C152.937 84.9249 154.063 82.3381 155.025 79.6996C156.035 76.8883 157.084 74.1519 158.093 71.3406C158.78 69.4914 159.59 67.619 160.277 65.7697C161.592 62.4917 162.745 59.162 163.936 55.9071C165.071 53.0726 166.167 50.1634 167.301 47.3289C168.207 45.1109 168.988 42.9161 169.731 40.6464C169.998 40.1048 170.102 39.5115 170.206 38.9183C171.195 38.9806 172.223 39.1178 173.212 39.1802C174.239 39.3174 175.43 39.5063 176.496 39.7183Z" fill="#047B8E"/>
<path d="M179.862 31.1402C179.814 31.313 179.814 31.313 179.728 31.411C179.042 33.2602 178.192 35.0578 177.506 36.907C176.479 36.7698 175.288 36.581 174.26 36.4438C173.233 36.3066 172.33 36.1462 171.263 35.9342C171.35 35.8362 171.599 35.7899 171.56 35.7151C172.333 33.7679 172.98 31.8438 173.628 29.9197C175.232 30.1139 176.672 30.2565 178.276 30.4507C178.89 30.5825 179.333 30.9103 179.862 31.1402Z" fill="#055868"/>
<path d="M159.259 34.3912C159.307 34.2184 159.229 34.0688 159.402 33.8728C160.088 32.0236 160.86 30.0763 161.546 28.2271C162.122 28.2841 162.698 28.3411 163.111 28.3465C163.438 28.4498 163.64 28.5763 163.928 28.6048C165.119 28.7937 166.271 28.9077 167.462 29.0966C167.043 30.4042 166.586 31.6371 166.167 32.9447C165.891 33.7339 165.826 34.402 165.549 35.1912C164.522 35.0541 163.533 34.9917 162.505 34.8545C161.314 34.6656 160.287 34.5284 159.259 34.3912Z" fill="#388691"/>
<path d="M151.681 92.2915C153.255 92.1632 154.906 92.1846 156.51 92.3788C156.338 92.5748 156.204 92.8456 156.032 93.0415C153.275 96.177 150.481 99.2377 147.561 102.322C146.441 103.595 145.033 104.841 143.914 106.114C143.75 106.063 143.712 105.988 143.548 105.936C143.893 105.544 144.16 105.003 144.419 104.709C145.788 103.389 146.34 101.81 147.258 100.41C148.262 98.9117 149.141 97.4366 150.02 95.9614C150.804 94.8319 151.55 93.6276 152.209 92.5213C152.007 92.3948 151.844 92.3431 151.681 92.2915Z" fill="#E9C293"/>
<path d="M137.642 91.0442C138.996 91.2847 140.128 90.8287 141.452 90.7467C141.339 91.5876 141.265 92.5033 141.152 93.3442C140.935 94.7784 140.805 96.1145 140.588 97.5487C140.371 98.9828 140.317 100.469 140.264 101.954C140.219 103.193 140.175 104.431 140.169 105.744C139.919 105.79 139.756 105.738 139.506 105.785C139.293 104.841 139.079 103.896 138.99 102.929C138.509 99.0826 138.191 95.2879 137.71 91.4415C137.796 91.3435 137.719 91.1938 137.642 91.0442Z" fill="#FCE2C0"/>
<path d="M139.506 105.785C139.756 105.738 139.919 105.79 140.169 105.744C140.332 105.796 140.495 105.847 140.659 105.899C141.196 105.881 141.858 105.84 142.435 105.897C142.847 105.902 143.136 105.931 143.548 105.936C143.712 105.988 143.75 106.063 143.914 106.114C143.866 106.287 143.819 106.46 143.733 106.558C142.957 107.44 142.144 108.247 141.368 109.129C141.196 109.325 140.697 109.417 140.323 109.487C140.198 109.51 139.794 109.257 139.717 109.107C139.714 108.042 139.673 106.902 139.506 105.785Z" fill="#454444"/>
<path d="M174.26 36.4437C175.288 36.5809 176.479 36.7698 177.506 36.907C177.182 37.869 176.82 38.7562 176.496 39.7183C175.43 39.5062 174.278 39.3922 173.212 39.1802C173.535 38.2182 173.898 37.3309 174.26 36.4437Z" fill="#BBBDBE"/>
<path d="M159.259 34.3913C160.287 34.5284 161.478 34.7173 162.505 34.8545C162.306 35.7934 161.944 36.6806 161.745 37.6195C160.554 37.4306 159.401 37.3166 158.21 37.1277C158.534 36.1657 158.897 35.2785 159.259 34.3913Z" fill="#E4E6E6"/>
<path d="M167.299 29.0449C166.108 28.856 164.956 28.742 163.765 28.5531C163.477 28.5246 163.275 28.3981 162.948 28.2948C163.61 28.2538 164.272 28.2129 164.973 28.2467C170.004 28.4606 174.682 29.314 179.179 30.611C179.63 30.6912 180.12 30.8462 179.612 31.1865C179.084 30.9567 178.68 30.7037 178.19 30.5487C176.711 30.3313 175.145 30.2119 173.542 30.0177C171.573 29.6453 169.517 29.3709 167.299 29.0449Z" fill="#104D58"/>
<path d="M179.729 31.4122C179.69 31.3367 179.814 31.3136 179.775 31.2381C179.775 31.2381 179.69 31.3367 179.729 31.4122Z" fill="#104D58"/>
<path d="M170.168 38.8434C170.064 39.4366 169.921 39.955 169.692 40.5715C168.911 42.7663 168.044 45.0592 167.263 47.254C166.128 50.0885 165.032 52.9977 163.897 55.8322C162.582 59.1102 161.429 62.4399 160.238 65.6948C159.552 67.544 158.741 69.4164 158.055 71.2657C157.045 74.077 156.035 76.8882 154.987 79.6247C154.024 82.2632 152.937 84.9248 151.936 87.4884C151.431 88.8941 150.926 90.2997 150.383 91.6305C150.335 91.8033 150.163 91.9993 149.952 92.1204C149.789 92.0688 149.539 92.1151 149.376 92.0634C148.414 91.2581 146.762 91.2367 145.37 90.9214C145.331 90.8466 145.331 90.8466 145.206 90.8697C144.879 90.7664 144.553 90.6631 144.351 90.5366C144.675 89.5745 144.96 88.5377 145.284 87.5756C145.797 85.9224 146.475 84.3208 147.152 82.7191C148.105 80.3283 149.02 77.8627 149.849 75.495C151.355 71.5257 152.861 67.5564 154.367 63.5871C155.691 60.0615 157.016 56.5358 158.379 53.0849C159.057 51.4833 159.57 49.8301 160.123 48.2516C161.124 45.688 162.163 43.1991 163.164 40.6355C163.527 39.7483 163.851 38.7863 164.213 37.8991C165.24 38.0362 166.393 38.1503 167.42 38.2875C168.362 38.5227 169.265 38.683 170.168 38.8434Z" fill="#1A93A5"/>
<path d="M144.39 90.6113C144.716 90.7147 145.043 90.818 145.245 90.9445C145.064 91.3881 144.969 91.7337 144.787 92.1773C144.627 93.191 144.591 94.1816 144.268 95.1436C143.887 96.5261 143.469 97.8337 143.05 99.1414C142.907 99.6598 142.765 100.178 142.622 100.697C142.441 101.14 142.26 101.584 142.078 102.027C142.022 102.448 142.129 102.92 141.948 103.364C141.585 104.251 141.06 105.086 140.697 105.974C140.534 105.922 140.371 105.87 140.207 105.819C140.252 104.58 140.258 103.267 140.302 102.029C140.356 100.543 140.573 99.1093 140.626 97.6235C140.718 96.2125 140.974 94.8532 141.191 93.419C141.304 92.5781 141.378 91.6624 141.491 90.8215C142.403 90.7342 143.353 90.7218 144.39 90.6113Z" fill="#FDD5A5"/>
<path d="M167.334 38.3855C166.307 38.2483 165.154 38.1343 164.127 37.9971C163.348 37.8136 162.484 37.7281 161.706 37.5446C161.905 36.6057 162.268 35.7185 162.467 34.7796C163.494 34.9168 164.483 34.9792 165.511 35.1164C166.414 35.2767 167.441 35.4139 168.344 35.5743C168.02 36.5363 167.658 37.4235 167.334 38.3855Z" fill="#DBDDDE"/>
<path d="M149.415 92.1382C149.578 92.1899 149.827 92.1435 149.991 92.1952C150.404 92.2006 150.941 92.1828 151.354 92.1881C151.517 92.2398 151.517 92.2398 151.681 92.2914C151.844 92.3431 152.171 92.4464 152.373 92.5729C151.589 93.7024 150.804 94.8319 150.184 96.0131C149.304 97.4882 148.464 99.0381 147.421 100.462C146.379 101.885 145.951 103.44 144.582 104.76C144.199 105.078 144.056 105.596 143.712 105.988C143.299 105.983 143.011 105.954 142.598 105.949C143.4 104.324 144.24 102.774 145.042 101.149C145.711 99.7953 146.34 98.3665 146.845 96.9608C147.6 95.5089 148.191 94.0052 148.945 92.5533C148.993 92.3805 149.204 92.2593 149.415 92.1382Z" fill="#F1C793"/>
<path d="M167.334 38.3855C167.697 37.4983 168.02 36.5363 168.383 35.6491C169.372 35.7114 170.274 35.8718 171.263 35.9341C172.291 36.0713 173.194 36.2317 174.26 36.4437C173.898 37.3309 173.574 38.293 173.212 39.1802C172.223 39.1178 171.195 38.9806 170.206 38.9182C169.265 38.6831 168.362 38.5227 167.334 38.3855Z" fill="#CFD1D2"/>
<path d="M151.681 92.2929C151.517 92.2406 151.517 92.2406 151.354 92.1882C151.393 92.2637 151.517 92.2406 151.681 92.2929Z" fill="#E9C293"/>
<path d="M171.263 35.9342C170.274 35.8718 169.372 35.7114 168.383 35.6491C167.48 35.4887 166.452 35.3515 165.549 35.1912C165.701 34.4251 165.852 33.659 166.167 32.9446C166.586 31.637 167.043 30.4042 167.462 29.0965C169.556 29.4457 171.736 29.6969 173.83 30.0462C173.182 31.9702 172.41 33.9174 171.762 35.8415C171.638 35.8647 171.388 35.911 171.263 35.9342Z" fill="#14707F"/>
<path d="M149.415 92.1382C149.204 92.2593 148.993 92.3805 148.907 92.4785C148.152 93.9304 147.398 95.3824 146.807 96.886C146.139 98.24 145.634 99.6456 145.004 101.074C144.202 102.699 143.361 104.249 142.559 105.874C142.022 105.892 141.36 105.933 140.783 105.876C141.146 104.988 141.672 104.153 142.034 103.266C142.215 102.822 142.108 102.35 142.165 101.93C142.221 101.509 142.527 101.042 142.708 100.599C142.851 100.08 142.993 99.5618 143.136 99.0434C143.555 97.7358 144.06 96.3301 144.354 95.0456C144.678 94.0836 144.713 93.093 144.874 92.0793C144.93 91.6589 145.15 91.2901 145.331 90.8465L145.494 90.8982C146.84 91.3863 148.452 91.3329 149.415 92.1382Z" fill="#FCD19C"/>
<path d="M145.408 90.9973L145.245 90.9445C145.369 90.9214 145.408 90.9973 145.408 90.9973Z" fill="#FDD5A5"/>
</g>
<defs>
<clipPath id="clip0_8_165">
<rect width="124.359" height="124.359" fill="white" transform="translate(14.3228 110.824) rotate(-17.1973)"/>
</clipPath>
<clipPath id="clip1_8_165">
<rect width="126.871" height="84.1984" fill="white" transform="matrix(0.983199 -0.182537 0.458521 0.888684 76.6018 41.6196)"/>
</clipPath>
</defs>
</svg>
