<svg width="75" height="88" viewBox="0 0 75 88" fill="none" xmlns="http://www.w3.org/2000/svg">
<g filter="url(#filter0_d_830_5871)">
<path d="M24.0272 46.009C19.5856 45.8831 15.4394 45.5122 11.459 47.5051C10.868 46.3728 11.2994 45.5388 11.6767 44.7421C14.1283 39.8158 17.6147 35.571 21.8594 32.3446C23.891 30.8333 26.2459 29.8994 28.7043 29.6302C29.6218 29.5153 30.5391 29.3633 31.4614 29.2272C35.4741 20.6814 41.5519 14.3436 49.2791 9.86027C54.3215 6.83023 59.8308 4.80107 65.543 3.87002C67.7575 3.54334 70.0561 3.29056 71.7222 1.3013C72.2137 0.72152 73.0076 0.522268 73.4981 1.11414C73.8697 1.56334 74.179 2.57475 73.9584 3.01034C72.0859 6.72871 72.6424 10.8035 72.2461 14.7388C71.7055 19.4176 70.4416 23.9666 68.5065 28.1981C65.6509 34.6664 61.5987 40.4419 56.5973 45.1723C55.5545 46.1677 54.5166 47.1685 53.4441 48.1269C53.119 48.365 52.8747 48.7101 52.7479 49.1102C52.6211 49.5104 52.6187 49.944 52.741 50.3457C53.5782 54.2391 52.7268 57.8528 50.7542 61.1528C49.683 62.9579 48.4984 64.6824 47.2088 66.3143C45.3563 68.6436 43.3603 70.8462 41.4088 73.0858C41.011 73.5347 40.525 73.8826 39.9861 74.1039C40.8867 68.9632 39.7997 64.1482 38.8108 59.1474C38.3646 59.3644 37.9319 59.6122 37.5155 59.8893C35.5173 61.4504 33.6014 61.0549 31.5938 59.8221C28.7209 58.0466 26.4526 55.6008 24.3365 52.9158C22.8499 51.0395 22.0793 49.3301 23.6658 47.1503C23.8335 46.789 23.955 46.4052 24.0272 46.009ZM72.7308 1.85936C70.9511 3.81724 68.8513 4.52518 66.5774 4.78317C62.5228 5.26544 58.6884 6.65873 54.9237 8.2479C47.5583 11.2609 41.1093 16.3987 36.2865 23.0957C34.9899 24.898 33.7674 26.7689 32.6043 28.6714C31.7603 30.053 30.5827 30.5772 29.157 30.7046C26.6916 30.9065 24.3254 31.8327 22.3169 33.382C18.2514 36.4939 15.1315 40.5246 12.5611 45.0833C12.4728 45.2374 12.5279 45.481 12.5092 45.778C16.8483 44.8175 21.1447 44.329 25.693 45.4141C25.0855 46.6994 24.5811 47.8465 24.0025 48.9462C23.6103 49.6952 23.7699 50.2248 24.2261 50.8751C26.487 54.0791 29.0083 56.9481 32.2722 59.0455C34.5074 60.4789 34.4287 60.5746 36.7679 59.15C37.5853 58.6538 38.2433 57.6651 39.488 58.042C40.7784 62.3871 41.4215 66.924 41.3935 71.4848C43.6103 68.8996 45.5622 66.7979 47.331 64.5272C50.3822 60.6081 52.7019 56.342 51.9633 50.9266C51.6952 48.966 52.1934 47.4373 53.8134 46.4025C53.9239 46.3221 54.0262 46.2293 54.1184 46.1256C58.7277 41.8665 62.8371 37.1374 65.8328 31.4054C68.8286 25.6733 71.0632 19.5731 71.391 12.8707C71.5619 9.39215 71.4514 5.87231 72.9752 2.63773C73.0094 2.53686 72.8953 2.36767 72.7308 1.85936Z" fill="#336DD5" fill-opacity="0.84"/>
<path d="M30.0445 64.0325C30.9476 64.082 31.4233 64.6421 31.3178 65.5597C31.2643 66.6885 31.0431 67.8008 30.6627 68.8545C29.8358 70.7458 28.6524 72.432 27.1876 73.8065C25.7228 75.1811 24.0083 76.214 22.1528 76.8399C22.9749 74.785 24.8605 73.5159 24.4573 70.9992C19.9835 74.4785 15.5089 77.714 9.75891 78.8178C10.6478 73.1575 11.8147 67.9522 14.5952 62.7935L9.97073 64.0202C11.5134 59.0572 15.9636 54.4541 20.2109 55.4979C21.3661 55.7789 22.4836 56.2163 23.5362 56.7998C25.8746 58.095 27.6972 60.0866 29.3526 62.2379C29.6826 62.8148 29.9401 63.4359 30.1187 64.0852C28.8067 62.7967 27.4898 61.5135 26.158 60.2145C24.5956 58.6709 22.7679 57.4696 20.7774 56.678C17.773 55.4544 13.1308 58.7329 12.1759 62.3788L17.4632 60.1687C15.7107 62.6405 14.299 65.3707 13.2715 68.2752C12.3385 71.1205 11.2476 73.9663 11.2785 77.2956C14.2024 76.611 16.601 75.2339 18.8953 73.6981C21.1896 72.1624 23.3254 70.4258 25.6339 68.6991C26.3898 70.4616 25.3881 71.9234 25.4623 73.4394C28.7382 71.7779 30.7081 67.6827 30.0445 64.0325Z" fill="#336DD5" fill-opacity="0.84"/>
<path d="M53.9642 20.8062C53.9358 20.0085 54.0829 19.2149 54.3934 18.4897C54.7039 17.7644 55.1691 17.1281 55.7513 16.6322C56.0516 16.3547 56.3972 16.1394 56.7706 15.9974C58.9342 15.1937 60.3662 16.9801 61.8599 17.9922C63.0518 18.804 62.8554 20.5755 62.2827 21.9456C61.5045 23.836 60.1912 25.0922 58.1483 25.0843C55.5774 25.073 53.7254 23.1557 53.9642 20.8062ZM54.9853 20.6962C54.9727 21.1423 55.0447 21.5866 55.1968 22.002C55.349 22.4173 55.5782 22.7951 55.8705 23.1123C56.1628 23.4296 56.5121 23.6796 56.8972 23.8473C57.2822 24.015 57.695 24.0968 58.1104 24.0877C59.803 24.1182 61.4942 22.2402 61.5222 20.2944C61.5458 18.4918 59.9517 16.9605 58.0568 16.9573C56.3248 16.9534 55.0226 18.586 54.9853 20.7068L54.9853 20.6962Z" fill="#336DD5" fill-opacity="0.84"/>
</g>
<defs>
<filter id="filter0_d_830_5871" x="0.758789" y="0.756836" width="73.2734" height="87.061" filterUnits="userSpaceOnUse" color-interpolation-filters="sRGB">
<feFlood flood-opacity="0" result="BackgroundImageFix"/>
<feColorMatrix in="SourceAlpha" type="matrix" values="0 0 0 0 0 0 0 0 0 0 0 0 0 0 0 0 0 0 127 0" result="hardAlpha"/>
<feOffset dx="-5" dy="5"/>
<feGaussianBlur stdDeviation="2"/>
<feComposite in2="hardAlpha" operator="out"/>
<feColorMatrix type="matrix" values="0 0 0 0 0 0 0 0 0 0 0 0 0 0 0 0 0 0 0.25 0"/>
<feBlend mode="normal" in2="BackgroundImageFix" result="effect1_dropShadow_830_5871"/>
<feBlend mode="normal" in="SourceGraphic" in2="effect1_dropShadow_830_5871" result="shape"/>
</filter>
</defs>
</svg>
