<svg width="159" height="178" viewBox="0 0 159 178" fill="none" xmlns="http://www.w3.org/2000/svg">
<path d="M138.507 157.932C139.371 157.163 138.885 155.24 131.169 136.403C127.012 126.23 122.971 116.541 123.154 116.456C123.154 116.456 123.192 116.468 123.244 116.545C124.044 117.731 128.208 118.335 140.949 119.98C153.69 121.625 159.418 125.037 158.902 123.248C158.386 121.458 144.374 110.844 138.758 106.081C133.141 101.318 120.46 91.1187 120.46 91.1187C120.46 91.1187 129.534 83.2728 133.764 77.8694C137.994 72.466 154.964 58.0569 151.879 54.9991C148.795 51.9413 127.98 54.0546 119.786 53.5807C111.592 53.1068 102.072 55.7024 102.072 55.7024C102.072 55.7024 103.919 36.1166 103.389 26.1972C102.877 16.3033 100.867 -2.40557 99.0669 0.495472C97.2676 3.39759 73.7265 44.0676 69.2399 55.1946C69.2399 55.1946 48.2806 29.2008 40.7739 20.6116C33.268 12.0234 28.4852 5.4227 28.536 12.6274C28.5868 19.832 40.7331 50.4942 42.3989 57.5089C44.048 64.4986 50.1063 82.615 50.1063 82.615C50.1063 82.615 34.5352 82.8788 25.3364 83.9452C16.1374 85.0114 -0.731522 82.326 0.112274 85.5811C0.935113 88.8519 31.532 103.245 39.3718 107.783C47.2115 112.321 66.3927 121.999 66.3927 121.999C66.3927 121.999 69.8318 163.636 73.7869 175.07C74.0707 175.892 74.5598 177.062 75.4456 177.44C78.8126 178.957 83.5076 167.201 93.2848 148.68C96.6811 142.263 99.5139 137.239 101.11 134.437C104.962 136.94 111.087 140.985 118.584 146.129C132.339 155.605 136.946 159.361 138.507 157.932Z" fill="url(#paint0_linear_830_5863)"/>
<defs>
<linearGradient id="paint0_linear_830_5863" x1="143.998" y1="43.2715" x2="25.4453" y2="123.236" gradientUnits="userSpaceOnUse">
<stop stop-color="#00C4CC"/>
<stop offset="1" stop-color="#8B3DFF"/>
</linearGradient>
</defs>
</svg>
