<svg width="23" height="26" viewBox="0 0 23 26" fill="none" xmlns="http://www.w3.org/2000/svg">
<g clip-path="url(#clip0_830_6502)">
<path d="M16.3552 9.97123C17.9653 11.1217 19.9379 11.7986 22.0683 11.7986V7.70114C21.6651 7.70123 21.263 7.65916 20.8685 7.57563V10.8009C18.7383 10.8009 16.7659 10.1241 15.1554 8.97373V17.3355C15.1554 21.5185 11.7627 24.9092 7.57782 24.9092C6.01636 24.9092 4.56498 24.4374 3.35938 23.6281C4.73541 25.0344 6.65438 25.9067 8.77731 25.9067C12.9625 25.9067 16.3553 22.5161 16.3553 18.3329V9.97123H16.3552ZM17.8353 5.83744C17.0124 4.9389 16.472 3.77769 16.3552 2.4939V1.96692H15.2182C15.5044 3.59856 16.4807 4.99252 17.8353 5.83744ZM6.00627 20.4183C5.54652 19.8158 5.298 19.0787 5.29912 18.3209C5.29912 16.4078 6.85093 14.8566 8.7655 14.8566C9.12224 14.8564 9.47688 14.9111 9.81696 15.0189V10.8299C9.41955 10.7755 9.01851 10.7523 8.61765 10.7608V14.0213C8.27742 13.9135 7.92258 13.8588 7.56567 13.8591C5.65119 13.8591 4.09946 15.4101 4.09946 17.3235C4.09946 18.6764 4.87506 19.8477 6.00627 20.4183Z" fill="#FF004F"/>
<path d="M15.1554 8.97364C16.766 10.124 18.7382 10.8008 20.8685 10.8008V7.57554C19.6794 7.32235 18.6267 6.70132 17.8352 5.83744C16.4805 4.99244 15.5044 3.59847 15.2182 1.96692H12.2317V18.3327C12.2249 20.2406 10.6757 21.7855 8.76531 21.7855C7.63962 21.7855 6.63945 21.2492 6.00609 20.4182C4.87505 19.8477 4.09936 18.6763 4.09936 17.3236C4.09936 15.4104 5.65109 13.8592 7.56557 13.8592C7.93238 13.8592 8.28591 13.9162 8.61755 14.0214V10.7609C4.50617 10.8458 1.19971 14.2034 1.19971 18.3328C1.19971 20.3942 2.02307 22.2629 3.35945 23.6283C4.56505 24.4373 6.01635 24.9093 7.5779 24.9093C11.7628 24.9093 15.1555 21.5184 15.1555 17.3355L15.1554 8.97364Z" fill="black"/>
<path d="M20.8685 7.57552V6.70362C19.7962 6.70525 18.7451 6.4051 17.8353 5.8375C18.6406 6.71872 19.7011 7.32641 20.8685 7.57569M15.2181 1.9669C15.1908 1.811 15.1699 1.65406 15.1553 1.49647V0.969482H11.0317V17.3354C11.0252 19.2432 9.47603 20.788 7.56552 20.788C7.0239 20.7888 6.48969 20.6622 6.00603 20.4184C6.6394 21.2492 7.63957 21.7854 8.76526 21.7854C10.6756 21.7854 12.2249 20.2408 12.2316 18.3328V1.96698L15.2181 1.9669ZM8.61776 10.7609V9.8325C8.27318 9.7854 7.9258 9.76184 7.57802 9.76198C3.39267 9.76198 0 13.1528 0 17.3354C0 19.9578 1.33336 22.2688 3.35957 23.6282C2.02319 22.2628 1.19983 20.3941 1.19983 18.3328C1.19983 14.2034 4.50621 10.8458 8.61776 10.7609Z" fill="#00F2EA"/>
</g>
<defs>
<clipPath id="clip0_830_6502">
<rect width="22.069" height="25" fill="white" transform="translate(0 0.969482)"/>
</clipPath>
</defs>
</svg>
