<svg width="23" height="24" viewBox="0 0 23 24" fill="none" xmlns="http://www.w3.org/2000/svg">
<path d="M17.6094 0.469482H5.39062C2.41347 0.469482 0 2.88295 0 5.86011V18.0789C0 21.056 2.41347 23.4695 5.39062 23.4695H17.6094C20.5865 23.4695 23 21.056 23 18.0789V5.86011C23 2.88295 20.5865 0.469482 17.6094 0.469482Z" fill="white"/>
<path d="M17.6094 0.469482H5.39062C2.41347 0.469482 0 2.88295 0 5.86011V18.0789C0 21.056 2.41347 23.4695 5.39062 23.4695H17.6094C20.5865 23.4695 23 21.056 23 18.0789V5.86011C23 2.88295 20.5865 0.469482 17.6094 0.469482Z" fill="#1D9BF0"/>
<path d="M17.9303 8.68219C17.9402 8.82477 17.9402 8.96735 17.9402 9.11128C17.9402 13.4954 14.6027 18.5516 8.49985 18.5516V18.5489C6.69697 18.5515 4.93144 18.0352 3.41406 17.0616C3.67623 17.0931 3.93965 17.1088 4.20379 17.1094C5.69807 17.1106 7.14937 16.6094 8.32447 15.6864C7.63212 15.6733 6.96116 15.4442 6.40539 15.0311C5.84963 14.618 5.43685 14.0416 5.22477 13.3824C5.72186 13.4782 6.23431 13.4587 6.72265 13.3252C5.17482 13.0125 4.06121 11.6525 4.06121 10.0731V10.031C4.52264 10.288 5.03905 10.4304 5.56699 10.4463C4.10918 9.47191 3.65979 7.53245 4.54007 6.01607C5.37304 7.0411 6.41232 7.87943 7.5904 8.47662C8.76849 9.07381 10.059 9.4165 11.3782 9.48242C11.2466 8.91626 11.2661 8.32549 11.4345 7.7692C11.6029 7.2129 11.9145 6.71058 12.338 6.31247C13.6743 5.05627 15.776 5.12069 17.0322 6.45631C17.7752 6.30961 18.4878 6.03722 19.1391 5.65086C18.8915 6.41908 18.3731 7.07117 17.6806 7.48583C18.3383 7.40834 18.9806 7.23228 19.5859 6.96356C19.1407 7.63038 18.58 8.21232 17.9303 8.68219Z" fill="white"/>
</svg>
