<svg width="1512" height="570" viewBox="0 0 1512 570" fill="none" xmlns="http://www.w3.org/2000/svg">
<path d="M-76.0692 64.5542C351.393 102.704 541.697 183.376 826.2 78.8888C1110.7 -25.5983 1456.06 0.834066 1533.11 21.7771" stroke="#E6EEFA" stroke-opacity="0.55" stroke-width="3.89425"/>
<path d="M-72.2178 231.267C355.245 269.417 545.549 350.089 830.052 245.602C1114.55 141.115 1459.91 167.547 1536.97 188.49" stroke="#E6EEFA" stroke-opacity="0.55" stroke-width="3.89425"/>
<path d="M-71.1336 366.591C356.329 404.741 546.633 485.413 831.136 380.926C1115.64 276.439 1460.99 302.871 1538.05 323.814" stroke="#E6EEFA" stroke-opacity="0.55" stroke-width="3.89425"/>
<path d="M-70.0474 501.916C357.415 540.065 547.719 620.737 832.222 516.25C1116.73 411.763 1462.08 438.195 1539.14 459.138" stroke="#E6EEFA" stroke-opacity="0.55" stroke-width="3.89425"/>
<path d="M-123.521 181.273C289.373 219.446 473.209 300.129 747.98 195.658C1022.75 91.1863 1356.33 117.638 1430.77 138.585" stroke="#F333E6" stroke-opacity="0.04" stroke-width="3.89425"/>
<path d="M-117.952 335.587C294.942 373.761 478.778 454.443 753.549 349.972C1028.32 245.501 1361.9 271.952 1436.34 292.9" stroke="#F333E6" stroke-opacity="0.04" stroke-width="3.89425"/>
<path d="M-117.68 448.273C295.214 486.446 479.049 567.129 753.821 462.658C1028.59 358.186 1362.17 384.638 1436.61 405.585" stroke="#F333E6" stroke-opacity="0.04" stroke-width="3.89425"/>
</svg>
